<svg height="512" viewBox="0 0 60 60" width="512" xmlns="http://www.w3.org/2000/svg"><g id="028---Sale-Stand" fill="none"><g id="Icons" transform="translate(1 1)"><path id="Rectangle-path" d="m7 27h44v18h-44z" fill="#cad9fc"/><path id="Rectangle-path" d="m7 27h41v18h-41z" fill="#e8edfc"/><path id="Shape" d="m7 22.46v22.54h-4v-22.55c1.23118667.7345396 2.76515604.7383745 4 .01z" fill="#e8edfc"/><path id="Shape" d="m55 22.46v22.54h-4v-22.55c1.2311867.7345396 2.765156.7383745 4 .01z" fill="#e8edfc"/><path id="Shape" d="m1 45h56c.5522847 0 1 .4477153 1 1v7c0 2.7614237-2.2385763 5-5 5h-48c-1.32608245 0-2.59785201-.5267842-3.53553391-1.4644661-.93768189-.9376819-1.46446609-2.2094515-1.46446609-3.5355339v-7c0-.5522847.44771525-1 1-1z" fill="#cad9fc"/><path id="Shape" d="m1 45h53c.5522847 0 1 .4477153 1 1v7c0 2.7614237-2.2385763 5-5 5h-45c-1.32608245 0-2.59785201-.5267842-3.53553391-1.4644661-.93768189-.9376819-1.46446609-2.2094515-1.46446609-3.5355339v-7c0-.5522847.44771525-1 1-1z" fill="#e8edfc"/><path id="Shape" d="m49.54 1.15c-.3294689-.70172494-1.034779-1.1498501-1.81-1.15h-35.59c-.7102221.00428692-1.3648954.38491093-1.72 1l-9.42 16v2c0 2.209139 1.790861 4 4 4s4-1.790861 4-4c0 2.209139 1.790861 4 4 4s4-1.790861 4-4c0 2.209139 1.790861 4 4 4s4-1.790861 4-4c0 2.209139 1.790861 4 4 4s4-1.790861 4-4c0 2.209139 1.790861 4 4 4s4-1.790861 4-4c0 2.209139 1.790861 4 4 4s4-1.790861 4-4c0 2.209139 1.790861 4 4 4s4-1.790861 4-4v-2z" fill="#e8edfc"/><path id="Shape" d="m49.54 1.15c-.3294689-.70172494-1.034779-1.1498501-1.81-1.15h-3c.775221.0001499 1.4805311.44827506 1.81 1.15l7.46 15.85v2c-.0016404 1.6245406-.9856587 3.0867364-2.49 3.7 1.2305678.4939409 2.6259358.3459528 3.7255225-.3951166 1.0995868-.7410693 1.7604593-1.97889 1.7644775-3.3048834v-2z" fill="#cad9fc"/><path id="Shape" d="m21 0-4 17h-8l7-17z" fill="#fff"/><path id="Shape" d="m33 17h-8l1-17h6z" fill="#fff"/><path id="Shape" d="m49 17h-8l-4-17h5z" fill="#fff"/><g fill="#cad9fc"><path id="Shape" d="m17 17v2c0 2.209139-1.790861 4-4 4s-4-1.790861-4-4v-2z"/><path id="Shape" d="m33 17v2c0 2.209139-1.790861 4-4 4s-4-1.790861-4-4v-2z"/><path id="Shape" d="m49 17v2c0 2.209139-1.790861 4-4 4s-4-1.790861-4-4v-2z"/></g></g><path id="Shape" d="m5 58h3c-2.76142375 0-5-2.2385763-5-5v-7c0-.5522847.44771525-1 1-1h2v-22.54c-1.23633616-.713798-1.9985357-2.0324032-2-3.46v-2l9.42-16c.3551046-.61508907 1.0097779-.99571308 1.72-1h-3c-.7102221.00428692-1.3648954.38491093-1.72 1l-9.42 16v2c.0014643 1.4275968.76366384 2.746202 2 3.46v22.54h-2c-.55228475 0-1 .4477153-1 1v7c0 1.3260824.5267842 2.597852 1.46446609 3.5355339.9376819.9376819 2.20945146 1.4644661 3.53553391 1.4644661z" fill="#fff" transform="translate(1 1)"/><path id="Rectangle-path" d="m3 38h2v8h-2z" fill="#fff"/><g fill="#428dff"><path id="Shape" d="m4 43c-.55228475 0-1-.4477153-1-1s.44771525-1 1-1 1 .4477153 1 1-.44771525 1-1 1z"/><path id="Shape" d="m59 45h-2v-21c1.2590292-.9442719 2-2.4262135 2-4v-2c.0047007-.0665838.0047007-.1334162 0-.2-.0119596-.0644794-.0286719-.127986-.05-.19l-7.5-15.89c-.4964211-1.05227565-1.5565091-1.72262544-2.72-1.72h-35.59c-1.0612377.00227465-2.0423075.56505886-2.58 1.48l-9.42 16v.06c-.0277023.061637-.05109187.125123-.07.19-.00470067.0665838-.00470067.1334162 0 .2 0 0-.07.07-.07.07v2c0 1.5737865.74097079 3.0557281 2 4v14c0 .5522847.44771525 1 1 1s1-.4477153 1-1v-13.1c.3295585.0639488.66430429.0974234 1 .1.33569571-.0025766.6704415-.0360512 1-.1v20.1h-6c-.55228475 0-1 .4477153-1 1v8c0 3.3137085 2.6862915 6 6 6h48c3.3137085 0 6-2.6862915 6-6v-8c0-.5522847-.4477153-1-1-1zm-4 0h-2v-20.1c.6598632.134694 1.3401368.134694 2 0zm-34.26-43-3.53 15h-5.72l6.18-15zm5.2 0-.88 15h-5.8l3.53-15zm11.27 0 3.53 15h-5.8l-.88-15zm5.12 0 6.18 15h-5.72l-3.53-15zm-9.39 15h-5.88l.88-15h4.12zm-21.94 2h6v1c0 1.6568542-1.3431458 2.9999999-3 2.9999999s-3-1.3431457-3-2.9999999zm8 0h6v1c0 1.6568542-1.3431458 2.9999999-3 2.9999999s-3-1.3431457-3-2.9999999zm8 0h6v1c0 1.6568542-1.3431458 3-3 3s-3-1.3431458-3-3zm8 0h6v1c0 1.6568542-1.3431458 3-3 3s-3-1.3431458-3-3zm8 0h6v1c0 1.6568542-1.3431458 3-3 3s-3-1.3431458-3-3zm11 4c-1.6568542 0-3-1.3431458-3-3v-1h6v1c0 1.6568542-1.3431458 3-3 3zm-4.37-20.43 6.79 14.43h-5.75l-6.18-15h4.24c.3846594.0010889.7345973.22271622.9.57zm-37.35-.08c.1800643-.30369945.5069327-.48993842.86-.49h2.37l-6.18 15h-5.58zm-9.28 17.51v-1h6v1c0 1.6568542-1.34314575 3-3 3s-3-1.3431458-3-3zm7 3c.9442719 1.2590292 2.4262135 2 4 2s3.0557281-.7409708 4-2c.9442719 1.2590292 2.4262135 2 4 2s3.0557281-.7409708 4-2c.9442719 1.2590292 2.4262135 2 4 2s3.0557281-.7409708 4-2c.9442719 1.2590292 2.4262135 2 4 2s3.0557281-.7409708 4-2c.9442719 1.2590292 2.4262135 2 4 2s3.0557281-.7409708 4-2c.2814519.3814639.6185361.7185481 1 1v3h-42v-3c.38146388-.2814519.71854811-.6185361 1-1zm-1 6h42v16h-42zm49 25c0 2.209139-1.790861 4-4 4h-48c-2.209139 0-4-1.790861-4-4v-7h56z"/><path id="Shape" d="m8 53h-3c-.55228475 0-1 .4477153-1 1s.44771525 1 1 1h3c.55228475 0 1-.4477153 1-1s-.44771525-1-1-1z"/><path id="Shape" d="m55 53h-42c-.5522847 0-1 .4477153-1 1s.4477153 1 1 1h42c.5522847 0 1-.4477153 1-1s-.4477153-1-1-1z"/><path id="Shape" d="m16.5 33c1.47 0 2.5.79 2.5 1.5 0 .5522847.4477153 1 1 1s1-.4477153 1-1c0-2-2-3.5-4.5-3.5s-4.5 1.54-4.5 3.5 2 3.5 4.5 3.5c1.47 0 2.5.79 2.5 1.5s-1 1.5-2.5 1.5-2.5-.79-2.5-1.5c0-.5522847-.4477153-1-1-1s-1 .4477153-1 1c0 2 2 3.5 4.5 3.5s4.5-1.54 4.5-3.5-2-3.5-4.5-3.5c-1.5 0-2.5-.79-2.5-1.5s1-1.5 2.5-1.5z"/><path id="Shape" d="m27.93 31.63c-.1508496-.38168-.5195914-.6324405-.93-.6324405s-.7791504.2507605-.93.6324405l-4 10c-.1321883.332257-.0770783.7097967.1445706.9904037.2216488.2806069.5761629.4216501.93.37s.6532411-.2881467.7854294-.6204037l.95-2.37h4.24l.95 2.37c.1516273.380721.5201962.6303967.93.63.1266534.0003081.2522124-.0234463.37-.07.2468077-.0979351.4445322-.2900079.5495816-.5338726.1050493-.2438646.1087976-.5194964.0104184-.7661274zm-2.25 6.37 1.32-3.31 1.32 3.31z"/><path id="Shape" d="m39 41h-4v-9c0-.5522847-.4477153-1-1-1s-1 .4477153-1 1v10c0 .5522847.4477153 1 1 1h5c.5522847 0 1-.4477153 1-1s-.4477153-1-1-1z"/><path id="Shape" d="m47 33c.5522847 0 1-.4477153 1-1s-.4477153-1-1-1h-5c-.5522847 0-1 .4477153-1 1v10c0 .5522847.4477153 1 1 1h5c.5522847 0 1-.4477153 1-1s-.4477153-1-1-1h-4v-3h3c.5522847 0 1-.4477153 1-1s-.4477153-1-1-1h-3v-3z"/></g></g></svg>