<?xml version="1.0" encoding="iso-8859-1"?>
<!-- Generator: Adobe Illustrator 16.0.0, SVG Export Plug-In . SVG Version: 6.00 Build 0)  -->
<!DOCTYPE svg PUBLIC "-//W3C//DTD SVG 1.1//EN" "http://www.w3.org/Graphics/SVG/1.1/DTD/svg11.dtd">
<svg version="1.1" id="Capa_1" xmlns="http://www.w3.org/2000/svg" xmlns:xlink="http://www.w3.org/1999/xlink" x="0px" y="0px"
	 width="27.485px" height="27.484px" viewBox="0 0 27.485 27.484" style="enable-background:new 0 0 27.485 27.484;"
	 xml:space="preserve">
<g>
	<path d="M27.095,12.917L13.443,0.782c-0.5-0.444-1.456-0.795-2.124-0.781L1.454,0.213C0.786,0.227,0.227,0.786,0.213,1.454
		l-0.212,9.865c-0.014,0.668,0.337,1.624,0.781,2.123l6.646,7.477l-1.956,2.614h4.279l3.165,3.562
		c0.444,0.5,1.194,0.521,1.667,0.048l3.609-3.609h3.709l-1.586-2.123l6.827-6.827C27.616,14.11,27.594,13.36,27.095,12.917z
		 M6.684,6.684c-0.712,0.712-1.867,0.712-2.579,0C3.393,5.973,3.394,4.818,4.106,4.106c0.711-0.712,1.865-0.712,2.577,0
		C7.396,4.818,7.396,5.973,6.684,6.684z M19.873,22.518h-4.235l-1.986-2.657l-1.98,2.657h-4.17l4.069-5.441l-3.827-5.124h4.237
		l1.915,2.562l1.914-2.562h4.171l-4.005,5.346L19.873,22.518z"/>
</g>
<g>
</g>
<g>
</g>
<g>
</g>
<g>
</g>
<g>
</g>
<g>
</g>
<g>
</g>
<g>
</g>
<g>
</g>
<g>
</g>
<g>
</g>
<g>
</g>
<g>
</g>
<g>
</g>
<g>
</g>
</svg>
