<?xml version="1.0" encoding="iso-8859-1"?>
<!-- Generator: Adobe Illustrator 19.0.0, SVG Export Plug-In . SVG Version: 6.00 Build 0)  -->
<svg version="1.1" id="Capa_1" xmlns="http://www.w3.org/2000/svg" xmlns:xlink="http://www.w3.org/1999/xlink" x="0px" y="0px"
	 viewBox="0 0 496 496" style="enable-background:new 0 0 496 496;" xml:space="preserve">
<g>
	<g>
		<g>
			<path d="M400,144c-22.336,0-41.184,23.176-50.224,57.52c-11.2-24.416-30.88-44.096-55.296-55.296
				C328.816,137.176,352,118.336,352,96c0-31.4-45.68-56-104-56S144,64.6,144,96c0,22.336,23.184,41.176,57.52,50.224
				c-24.416,11.2-44.096,30.88-55.296,55.296C137.184,167.176,118.336,144,96,144c-31.4,0-56,45.68-56,104s24.6,104,56,104
				c22.336,0,41.184-23.176,50.224-57.52c11.2,24.416,30.88,44.096,55.296,55.296C167.184,358.824,144,377.664,144,400
				c0,31.4,45.68,56,104,56s104-24.6,104-56c0-22.336-23.184-41.176-57.52-50.224c24.416-11.2,44.096-30.88,55.296-55.296
				C358.816,328.824,377.664,352,400,352c31.4,0,56-45.68,56-104S431.4,144,400,144z M96,336c-18.92,0-40-36.144-40-88
				c0-51.856,21.08-88,40-88s40,36.144,40,88S114.92,336,96,336z M309.928,174.768l-39.904,39.896
				c-4.2-2.784-8.928-4.816-14.024-5.856v-56.4C276.464,154.112,295.104,162.216,309.928,174.768z M272,248
				c0,13.232-10.768,24-24,24s-24-10.768-24-24s10.768-24,24-24S272,234.768,272,248z M160,96c0-18.92,36.144-40,88-40
				s88,21.08,88,40s-36.144,40-88,40C196.144,136,160,114.92,160,96z M240.008,152.4v56.408H240
				c-5.096,1.04-9.832,3.072-14.024,5.856L186.08,174.76C200.896,162.208,219.544,154.104,240.008,152.4z M174.768,186.072
				l39.896,39.904c-2.784,4.192-4.816,8.928-5.856,14.024h-56.4C154.112,219.536,162.216,200.896,174.768,186.072z M152.4,256
				h56.408v0c1.04,5.096,3.072,9.824,5.856,14.024l-39.904,39.904C162.208,295.112,154.104,276.464,152.4,256z M186.072,321.232
				l39.904-39.896c4.2,2.784,8.928,4.816,14.024,5.856v56.4C219.536,341.888,200.896,333.784,186.072,321.232z M336,400
				c0,18.92-36.144,40-88,40c-51.856,0-88-21.08-88-40c0-18.92,36.144-40,88-40S336,381.08,336,400z M255.992,343.6v-56.408H256
				c5.096-1.04,9.832-3.072,14.024-5.856l39.896,39.904C295.104,333.792,276.456,341.896,255.992,343.6z M321.232,309.928
				l-39.896-39.904c2.784-4.192,4.816-8.928,5.856-14.024h56.4C341.888,276.464,333.784,295.104,321.232,309.928z M287.192,240
				c-1.04-5.096-3.072-9.824-5.856-14.024l39.904-39.904c12.552,14.816,20.656,33.464,22.36,53.928H287.192z M400,336
				c-18.92,0-40-36.144-40-88c0-51.856,21.08-88,40-88c18.92,0,40,36.144,40,88S418.92,336,400,336z"/>
			<path d="M248,0C111.256,0,0,111.248,0,248s111.256,248,248,248s248-111.248,248-248S384.744,0,248,0z M248,480
				C120.072,480,16,375.92,16,248S120.072,16,248,16s232,104.08,232,232S375.928,480,248,480z"/>
		</g>
	</g>
</g>
<g>
</g>
<g>
</g>
<g>
</g>
<g>
</g>
<g>
</g>
<g>
</g>
<g>
</g>
<g>
</g>
<g>
</g>
<g>
</g>
<g>
</g>
<g>
</g>
<g>
</g>
<g>
</g>
<g>
</g>
</svg>
