<?xml version="1.0" encoding="iso-8859-1"?>
<!-- Generator: Adobe Illustrator 19.0.0, SVG Export Plug-In . SVG Version: 6.00 Build 0)  -->
<svg version="1.1" id="Capa_1" xmlns="http://www.w3.org/2000/svg" xmlns:xlink="http://www.w3.org/1999/xlink" x="0px" y="0px"
	 viewBox="0 0 335.96 335.96" style="enable-background:new 0 0 335.96 335.96;" xml:space="preserve">
<g>
	<g>
		<path d="M168,90.46c-47.72,0-137.96,6.16-137.96,29.48c0,23.32,90.24,29.52,137.96,29.52c47.72,0,137.96-6.2,137.96-29.48
			C305.96,96.7,215.72,90.46,168,90.46z M168,141.46v-0.04c-85.32,0-129.96-14-129.96-21.48c0-7.48,44.64-21.48,129.96-21.48
			s129.96,14,129.96,21.52S253.32,141.46,168,141.46z"/>
	</g>
</g>
<g>
	<g>
		<path d="M168,76.74c-81.44,0-168,15.24-168,43.48c0.005,1.725,0.331,3.434,0.96,5.04l17.96,86.32
			c6.12,29.4,24.64,47.64,48.36,47.64h201.44c23.72,0,42.28-18.24,48.36-47.64L335,125.26c0.63-1.606,0.955-3.315,0.96-5.04
			C336,91.98,249.44,76.74,168,76.74z M309.28,209.94c-4,20-16.96,41.28-40.52,41.28H67.28c-23.56,0-36.4-21.32-40.52-41.28
			l-15.2-73.04c26.2,17.48,92.88,26.76,156.44,26.76s130.24-9.28,156.44-26.76L309.28,209.94z M326.76,124.22
			c-9.32,15.6-72,31.48-158.76,31.48s-149.4-16-158.76-31.48c-1.674-2.404-1.674-5.596,0-8c9.36-15.6,72-31.44,158.76-31.44
			s149.4,16,158.76,31.44C328.434,118.624,328.434,121.816,326.76,124.22z"/>
	</g>
</g>
<g>
	<g>
		<path d="M233.602,212.982c-0.707-2.283-1.833-4.413-3.322-6.282c6.606-8.295,5.237-20.374-3.058-26.98s-20.374-5.237-26.98,3.058
			c-1.489,1.869-2.615,4-3.322,6.282h-57.84c-2.442-8.116-9.925-13.663-18.4-13.64c-10.604-0.02-19.216,8.56-19.236,19.164
			c-0.008,4.41,1.502,8.689,4.276,12.116c-6.606,8.295-5.237,20.374,3.058,26.98c8.295,6.606,20.374,5.237,26.98-3.058
			c1.489-1.869,2.615-4,3.322-6.282h57.84c3.136,10.129,13.89,15.798,24.02,12.662C231.069,233.866,236.738,223.111,233.602,212.982
			z M226.48,195.771c-0.317,3.06-1.88,5.855-4.32,7.729c-1.756,1.34-2.094,3.85-0.754,5.606c0.216,0.284,0.47,0.537,0.754,0.754
			c4.806,3.894,5.546,10.946,1.653,15.753c-3.894,4.806-10.946,5.546-15.753,1.653c-2.241-1.815-3.695-4.425-4.06-7.285
			c-0.206-2.052-1.938-3.61-4-3.6h-64.2c-2.062-0.01-3.794,1.548-4,3.6c-0.638,6.153-6.143,10.623-12.296,9.984
			c-6.153-0.638-10.623-6.143-9.984-12.296c0.318-3.06,1.88-5.855,4.32-7.729c1.756-1.34,2.094-3.85,0.754-5.606
			c-0.216-0.284-0.47-0.537-0.754-0.754c-4.806-3.894-5.546-10.946-1.653-15.753c3.894-4.806,10.946-5.546,15.753-1.653
			c2.241,1.815,3.695,4.425,4.06,7.285c0.206,2.052,1.938,3.61,4,3.6h64.2c2.062,0.01,3.794-1.548,4-3.6
			c0.638-6.153,6.143-10.623,12.296-9.984C222.648,184.114,227.119,189.619,226.48,195.771z"/>
	</g>
</g>
<g>
</g>
<g>
</g>
<g>
</g>
<g>
</g>
<g>
</g>
<g>
</g>
<g>
</g>
<g>
</g>
<g>
</g>
<g>
</g>
<g>
</g>
<g>
</g>
<g>
</g>
<g>
</g>
<g>
</g>
</svg>
