<?xml version="1.0"?>
<svg xmlns="http://www.w3.org/2000/svg" id="Layer_2" data-name="Layer 2" viewBox="0 0 128 128" width="512" height="512"><title>RESTAURANT</title><path d="M128,50.885V41.618a1.863,1.863,0,0,0-.082-.531L117.91,9.654a1.75,1.75,0,0,0-1.668-1.219H11.758A1.75,1.75,0,0,0,10.09,9.654L.083,41.087A1.824,1.824,0,0,0,0,41.618v9.267A7.982,7.982,0,0,0,5.25,58.37v46.748H1.75A1.75,1.75,0,0,0,0,106.868v10.947a1.751,1.751,0,0,0,1.75,1.75h124.5a1.75,1.75,0,0,0,1.75-1.75V106.868a1.749,1.749,0,0,0-1.75-1.75h-3.5V58.37A7.98,7.98,0,0,0,128,50.885Zm-3.5,0a4.475,4.475,0,1,1-8.95,0V43.368h8.95ZM15.95,43.368H24.9v7.517a4.475,4.475,0,1,1-8.95,0Zm12.45,0h8.95v7.517a4.475,4.475,0,1,1-8.95,0Zm12.45,0H49.8v7.517a4.475,4.475,0,0,1-8.95,0Zm12.45,0h8.95v7.517a4.475,4.475,0,0,1-8.95,0Zm12.45,0H74.7v7.517a4.475,4.475,0,0,1-8.95,0Zm12.45,0h8.95v7.517a4.475,4.475,0,0,1-8.95,0Zm12.45,0H99.6v7.517a4.475,4.475,0,1,1-8.95,0Zm12.45,0h8.95v7.517a4.475,4.475,0,1,1-8.95,0ZM13.037,11.935H114.963l8.893,27.933H4.144ZM3.5,50.885V43.368h8.95v7.517a4.475,4.475,0,1,1-8.95,0Zm121,65.18H3.5v-7.447h121ZM110,105.118H90.65v-36.6H110Zm3.5,0V66.764a1.75,1.75,0,0,0-1.75-1.75H88.9a1.751,1.751,0,0,0-1.75,1.75v38.354H8.75V58.823a8.039,8.039,0,0,0,3.041-.938,12.911,12.911,0,0,0,2.446-1.979,7.963,7.963,0,0,0,12.413-.041,8.059,8.059,0,0,0,12.45,0,8.059,8.059,0,0,0,12.45,0,8.059,8.059,0,0,0,12.45,0,8.06,8.06,0,0,0,12.45,0,8.06,8.06,0,0,0,12.45,0,8.059,8.059,0,0,0,12.45,0,8.06,8.06,0,0,0,12.45,0,8.043,8.043,0,0,0,5.45,2.957v46.3Z"/><path d="M76.45,65H17a1.751,1.751,0,0,0-1.75,1.75V96.868A1.751,1.751,0,0,0,17,98.618H76.45a1.75,1.75,0,0,0,1.75-1.75V66.746A1.75,1.75,0,0,0,76.45,65ZM74.7,68.5V79.8H70.562a1.751,1.751,0,0,0-1.75,1.75v7.5h-.263a10.006,10.006,0,0,0-9.213,6.072H48.475V92.027h7.692a1.75,1.75,0,0,0,1.75-1.75v-5.75a1.751,1.751,0,0,0-1.75-1.75H37.283a1.751,1.751,0,0,0-1.75,1.75v5.75a1.75,1.75,0,0,0,1.75,1.75h7.692v3.091H34.114A10.007,10.007,0,0,0,24.9,89.046h-.263v-7.5a1.751,1.751,0,0,0-1.75-1.75H18.75V68.5ZM39.033,88.527v-2.25H54.417v2.25ZM18.75,95.118V83.3h2.388v7.5a1.749,1.749,0,0,0,1.75,1.75H24.9a6.517,6.517,0,0,1,5.2,2.572Zm55.95,0H63.354a6.516,6.516,0,0,1,5.2-2.572h2.013a1.749,1.749,0,0,0,1.75-1.75V83.3H74.7Z"/><path d="M104.833,88.566h1.5a1.75,1.75,0,0,0,0-3.5h-1.5a1.75,1.75,0,0,0,0,3.5Z"/></svg>
