<?xml version="1.0"?>
<svg xmlns="http://www.w3.org/2000/svg" viewBox="0 0 128 128" width="512" height="512"><title>GALLERY</title><g id="Layer_2" data-name="Layer 2"><path d="M18.639,63.253h90.723a1.75,1.75,0,0,0,1.75-1.75V1.75A1.75,1.75,0,0,0,109.361,0H18.639a1.75,1.75,0,0,0-1.75,1.75V61.5A1.75,1.75,0,0,0,18.639,63.253ZM20.389,3.5h87.223V59.753H20.389Z"/><path d="M102.074,7.287H25.926a1.75,1.75,0,0,0-1.75,1.75V54.216a1.75,1.75,0,0,0,1.75,1.75h76.148a1.75,1.75,0,0,0,1.75-1.75V9.037A1.75,1.75,0,0,0,102.074,7.287ZM79.354,36.452,86.548,33.5l13.776,4.833V42.59Zm20.97-25.665V34.623L87.078,29.976a1.767,1.767,0,0,0-1.244.032l-11.86,4.87L54.017,29.036a1.756,1.756,0,0,0-1.154.061L27.676,39.4V10.787Zm0,41.679H27.676v-9.28L53.621,32.567l46.7,13.67Z"/><path d="M70.968,30a6.532,6.532,0,1,0-6.531-6.532A6.54,6.54,0,0,0,70.968,30Zm0-9.563a3.032,3.032,0,1,1-3.031,3.031A3.035,3.035,0,0,1,70.968,20.441Z"/><path d="M126.25,87.409h-7.89a8.033,8.033,0,0,0,1.432-4.583V81.7a8.083,8.083,0,1,0-16.167,0v1.123a8.033,8.033,0,0,0,1.432,4.583h-7.89a1.75,1.75,0,0,0-1.75,1.75v6.667a1.75,1.75,0,0,0,1.75,1.75h6.458v2.612c-8.014,2.882-22.884,7.237-39.625,7.237s-31.611-4.354-39.625-7.237V97.576h6.458a1.75,1.75,0,0,0,1.75-1.75V89.159a1.75,1.75,0,0,0-1.75-1.75h-7.89a8.033,8.033,0,0,0,1.432-4.583V81.7a8.083,8.083,0,1,0-16.167,0v1.123A8.033,8.033,0,0,0,9.64,87.409H1.75A1.75,1.75,0,0,0,0,89.159v6.667a1.75,1.75,0,0,0,1.75,1.75H8.208V126.25A1.75,1.75,0,0,0,9.958,128H22.625a1.75,1.75,0,0,0,1.75-1.75V112.368A129.671,129.671,0,0,0,64,118.925a129.683,129.683,0,0,0,39.625-6.557V126.25a1.75,1.75,0,0,0,1.75,1.75h12.667a1.75,1.75,0,0,0,1.75-1.75V97.576h6.458a1.75,1.75,0,0,0,1.75-1.75V89.159A1.75,1.75,0,0,0,126.25,87.409Zm-19.125-4.583V81.7a4.583,4.583,0,1,1,9.167,0v1.123a4.583,4.583,0,0,1-9.167,0Zm-95.417,0V81.7a4.583,4.583,0,1,1,9.167,0v1.123a4.583,4.583,0,0,1-9.167,0ZM3.5,90.909H29.083v3.167H3.5ZM20.875,124.5H11.708V97.576h9.167V124.5ZM64,115.425a126.609,126.609,0,0,1-39.625-6.741V103.9A124.149,124.149,0,0,0,64,110.925a124.149,124.149,0,0,0,39.625-7.022v4.781A126.625,126.625,0,0,1,64,115.425Zm52.292,9.075h-9.167V97.576h9.167ZM124.5,94.076H98.917V90.909H124.5Z"/></g></svg>
