<?xml version="1.0"?>
<svg xmlns="http://www.w3.org/2000/svg" id="Layer_2" data-name="Layer 2" viewBox="0 0 128 128" width="512" height="512"><title>BAR</title><path d="M126.25,19.871a1.749,1.749,0,0,0,1.75-1.75V7.371a1.749,1.749,0,0,0-1.75-1.75H1.75A1.749,1.749,0,0,0,0,7.371v10.75a1.749,1.749,0,0,0,1.75,1.75h23.5V36.879H18a1.749,1.749,0,0,0-1.75,1.75,14.517,14.517,0,0,1-14.5,14.5A1.749,1.749,0,0,0,0,54.879v49.5a1.749,1.749,0,0,0,1.75,1.75,14.517,14.517,0,0,1,14.5,14.5,1.749,1.749,0,0,0,1.75,1.75h92a1.749,1.749,0,0,0,1.75-1.75,14.517,14.517,0,0,1,14.5-14.5,1.749,1.749,0,0,0,1.75-1.75v-49.5a1.749,1.749,0,0,0-1.75-1.75,14.517,14.517,0,0,1-14.5-14.5,1.749,1.749,0,0,0-1.75-1.75h-7.25V19.871ZM3.5,9.121h121v7.25H3.5ZM37.917,36.879V19.871H90.083V36.879ZM28.75,19.871h5.667V36.879H28.75ZM124.5,56.545v46.168a18.032,18.032,0,0,0-16.166,16.166H19.666A18.032,18.032,0,0,0,3.5,102.713V56.545A18.032,18.032,0,0,0,19.666,40.379h88.668A18.032,18.032,0,0,0,124.5,56.545ZM99.25,36.879H93.583V19.871H99.25Z"/><path d="M24.4,47.96A24.747,24.747,0,0,1,11.081,61.282,1.751,1.751,0,0,0,10,62.9V96.358a1.752,1.752,0,0,0,1.081,1.618A24.747,24.747,0,0,1,24.4,111.3a1.751,1.751,0,0,0,1.618,1.081h75.958A1.752,1.752,0,0,0,103.6,111.3a24.747,24.747,0,0,1,13.322-13.322A1.752,1.752,0,0,0,118,96.358V62.9a1.751,1.751,0,0,0-1.081-1.617A24.747,24.747,0,0,1,103.6,47.96a1.752,1.752,0,0,0-1.618-1.081H26.021A1.751,1.751,0,0,0,24.4,47.96Zm76.434,2.419A28.315,28.315,0,0,0,114.5,64.042V95.216a28.315,28.315,0,0,0-13.663,13.663H27.163A28.315,28.315,0,0,0,13.5,95.216V64.042A28.315,28.315,0,0,0,27.163,50.379Z"/><path d="M54.208,97.462a1.749,1.749,0,0,0,1.75-1.75V81.379H72.042V95.712a1.75,1.75,0,1,0,3.5,0V68.546a6.758,6.758,0,0,0-6.75-6.75H59.208a6.758,6.758,0,0,0-6.75,6.75V95.712A1.749,1.749,0,0,0,54.208,97.462Zm5-32.166h9.584a3.254,3.254,0,0,1,3.25,3.25v9.333H55.958V68.546A3.254,3.254,0,0,1,59.208,65.3Z"/><path d="M80.5,97.462a1.749,1.749,0,0,0,1.75-1.75V81.379h9.834a6.257,6.257,0,0,1,6.25,6.25v8.083a1.75,1.75,0,0,0,3.5,0V87.629a9.715,9.715,0,0,0-3.246-7.242,6.746,6.746,0,0,0,3.246-5.758V68.546a6.758,6.758,0,0,0-6.75-6.75H80.5a1.749,1.749,0,0,0-1.75,1.75V95.712A1.749,1.749,0,0,0,80.5,97.462ZM82.253,65.3H95.087a3.254,3.254,0,0,1,3.25,3.25v6.083a3.254,3.254,0,0,1-3.25,3.25H82.253Z"/><path d="M27.913,97.462H42.5a6.758,6.758,0,0,0,6.75-6.75V84.629a6.726,6.726,0,0,0-2.232-5,6.726,6.726,0,0,0,2.232-5V68.546A6.758,6.758,0,0,0,42.5,61.8H27.913a1.749,1.749,0,0,0-1.75,1.75V95.712A1.749,1.749,0,0,0,27.913,97.462ZM45.747,84.629v6.083a3.254,3.254,0,0,1-3.25,3.25H29.663V81.379H42.5A3.254,3.254,0,0,1,45.747,84.629ZM29.663,65.3H42.5a3.254,3.254,0,0,1,3.25,3.25v6.083a3.254,3.254,0,0,1-3.25,3.25H29.663Z"/></svg>
