<svg id="Layer_1" height="512" viewBox="0 0 128 128" width="512" xmlns="http://www.w3.org/2000/svg" data-name="Layer 1"><path d="m115 44.567h-7.829a1.75 1.75 0 0 0 -1.75 1.75v5.359l-.127.274-8.259-23.267a1.749 1.749 0 0 0 -1.649-1.165h-62.772a1.749 1.749 0 0 0 -1.649 1.165l-8.259 23.267-.127-.274v-5.359a1.75 1.75 0 0 0 -1.75-1.75h-7.829a1.75 1.75 0 0 0 -1.75 1.75v5.745a1.75 1.75 0 0 0 1.75 1.75h6.711l1.336 2.888-4.487 14.082a1.754 1.754 0 0 0 -.075.5c0 .012-.008.023-.008.035v15.075a1.75 1.75 0 0 0 1.75 1.75h.314v5.458a6.888 6.888 0 0 0 6.881 6.88h4.524a6.888 6.888 0 0 0 6.881-6.88v-5.46h54.346v5.46a6.888 6.888 0 0 0 6.881 6.88h4.524a6.888 6.888 0 0 0 6.881-6.88v-5.46h.314a1.75 1.75 0 0 0 1.75-1.75v-15.077c0-.011-.007-.021-.008-.033a1.738 1.738 0 0 0 -.075-.5l-4.487-14.08 1.336-2.883h6.711a1.75 1.75 0 0 0 1.75-1.75v-5.75a1.75 1.75 0 0 0 -1.75-1.75zm-81.15-13.549h60.3l8.45 23.809h-2.053l-7.166-20.553a1.749 1.749 0 0 0 -1.652-1.174h-55.458a1.749 1.749 0 0 0 -1.652 1.173l-7.167 20.554h-2.052zm62.991 23.809h-65.682l6.356-18.227h52.97zm-77.762-4.515h-4.329v-2.245h4.329zm9.4 22.751a8.08 8.08 0 0 0 15.906 0h39.227a8.08 8.08 0 0 0 15.906 0h8.5v11.579h-88.041v-11.579zm3.365-1.436a4.588 4.588 0 1 1 4.588 4.589 4.594 4.594 0 0 1 -4.585-4.589zm59.718-4.588a4.589 4.589 0 1 1 -4.588 4.588 4.594 4.594 0 0 1 4.591-4.588zm-58.235 26.561a3.384 3.384 0 0 1 -3.381 3.38h-4.524a3.384 3.384 0 0 1 -3.381-3.38v-5.46h11.286zm72.632 0a3.384 3.384 0 0 1 -3.381 3.38h-4.524a3.384 3.384 0 0 1 -3.381-3.38v-5.46h11.286zm-6.582-24.037a8.077 8.077 0 0 0 -15.624 0h-39.506a8.077 8.077 0 0 0 -15.624 0h-8l3.577-11.236h79.6l3.579 11.236zm13.873-19.251h-4.329v-2.245h4.329z"/></svg>