<svg id="Layer_1" height="512" viewBox="0 0 128 128" width="512" xmlns="http://www.w3.org/2000/svg" data-name="Layer 1"><path d="m101.14 43.471a1.75 1.75 0 0 0 3.124-1.577 10.653 10.653 0 0 1 3.285-13.061 13.611 13.611 0 0 0 5.351-11.733c-.265-4.29-2.431-7.88-4.335-9.082a1.75 1.75 0 0 0 -1.867 2.96c.814.514 2.5 2.976 2.709 6.337a10.236 10.236 0 0 1 -4.08 8.808 14.217 14.217 0 0 0 -4.187 17.348z"/><path d="m89.593 21.618 5.851 2.462a1.747 1.747 0 0 0 2.291-.934l2.465-5.846a1.749 1.749 0 0 0 -.936-2.3l-5.851-2.462a1.748 1.748 0 0 0 -2.291.934l-2.462 5.851a1.749 1.749 0 0 0 .934 2.291zm4.075-5.171 2.625 1.1-1.1 2.625-2.625-1.1z"/><path d="m101.79 55.171a5.4 5.4 0 1 0 7.043 2.964 5.41 5.41 0 0 0 -7.043-2.964zm3.794 5.742a1.9 1.9 0 1 1 .008-1.457 1.891 1.891 0 0 1 -.009 1.457z"/><path d="m20.451 51.769a10.748 10.748 0 0 1 3.282 13.066 1.75 1.75 0 0 0 3.127 1.572 14.216 14.216 0 0 0 -4.191-17.346 10.237 10.237 0 0 1 -4.08-8.808c.207-3.361 1.895-5.823 2.709-6.337a1.75 1.75 0 0 0 -1.867-2.96c-1.9 1.2-4.07 4.792-4.335 9.082a13.611 13.611 0 0 0 5.355 11.731z"/><path d="m30.264 46.083a1.747 1.747 0 0 0 2.292.934l5.851-2.462a1.749 1.749 0 0 0 .934-2.291l-2.462-5.851a1.75 1.75 0 0 0 -2.291-.934l-5.852 2.461a1.749 1.749 0 0 0 -.934 2.291zm4.067-6.7 1.1 2.625-2.625 1.1-1.1-2.625z"/><path d="m26.21 78.107a5.4 5.4 0 1 0 2.964 7.043 5.412 5.412 0 0 0 -2.964-7.043zm-.277 5.722a1.9 1.9 0 1 1 -1.044-2.481 1.9 1.9 0 0 1 1.044 2.482z"/><path d="m96.725 98.461c-3.584-9.574-10.837-28.692-25.5-67.107a9.339 9.339 0 1 0 -13.324 0c-14.656 38.371-21.908 57.495-25.501 67.083-.013.033-.026.065-.037.1-3.479 9.3-3.482 9.549-3.482 9.789 0 5.927 12.254 11.927 35.673 11.927s35.673-6 35.673-11.927c0-.251 0-.5-3.488-9.813-.001-.019-.008-.035-.014-.052zm-58.1-6.627c6.628 2.247 15.937 3.523 25.93 3.523s19.3-1.276 25.93-3.523c.9 2.389 1.719 4.551 2.435 6.455-5.8 2.931-16.655 4.788-28.365 4.788s-22.566-1.857-28.366-4.789c.721-1.903 1.536-4.064 2.439-6.454zm6.709-17.684 2.456 2.394-1.647 9.6a1.749 1.749 0 0 0 2.539 1.845l8.625-4.534 8.625 4.534a1.749 1.749 0 0 0 2.539-1.845l-1.647-9.6 6.978-6.8a1.75 1.75 0 0 0 -.97-2.985l-9.643-1.4-4.312-8.738a1.75 1.75 0 0 0 -3.139 0l-4.312 8.738-2.907.423c3.6-9.453 7.736-20.309 12.346-32.384a9.3 9.3 0 0 0 7.39 0l2.389 6.26-.644 1.309-8.561 1.243a1.75 1.75 0 0 0 -.97 2.985l6.191 6.036-1.46 8.521a1.75 1.75 0 0 0 2.538 1.848l7.653-4.023 2.609 1.367c4.5 11.82 8.285 21.777 11.252 29.613-6.216 2.077-15.262 3.3-24.691 3.3s-18.475-1.223-24.691-3.3c1.589-4.202 3.418-9.023 5.464-14.407zm1.759-4.627 5.746-.835a1.75 1.75 0 0 0 1.318-.957l3.15-6.383 3.15 6.383a1.75 1.75 0 0 0 1.318.957l7.044 1.023-5.1 4.969a1.749 1.749 0 0 0 -.5 1.549l1.2 7.015-6.3-3.312a1.75 1.75 0 0 0 -1.629 0l-6.3 3.312 1.2-7.015a1.749 1.749 0 0 0 -.5-1.549l-4.2-4.1zm29.027-15.508a1.741 1.741 0 0 0 -1.543.033l-5.329 2.8 1.017-5.933a1.749 1.749 0 0 0 -.5-1.549l-4.311-4.2 5.957-.866a1.74 1.74 0 0 0 .857-.39q1.998 5.242 3.852 10.105zm-11.561-35.033a5.839 5.839 0 1 1 -5.839 5.839 5.846 5.846 0 0 1 5.839-5.839zm0 97.768c-19.256 0-31.681-4.8-32.159-8.224.255-.76 1.125-3.123 2.559-6.951 6.42 3.11 17.442 5 29.6 5s23.18-1.893 29.6-5c1.434 3.828 2.3 6.191 2.56 6.951-.48 3.427-12.904 8.224-32.16 8.224z"/></svg>