<svg height="480pt" viewBox="0 0 480 480.34526" width="480pt" xmlns="http://www.w3.org/2000/svg"><path d="m480.171875 376.015625c0-13.253906-10.742187-24-24-24h-8v-8c5.238281-6.902344 8.050781-15.335937 8-24 0-12.589844-5.925781-24.445313-16-32v-8.800781c18.628906-3.800782 32.003906-20.1875 32-39.199219 0-4.417969-3.578125-8-8-8h-24c-1.988281.011719-3.972656.226563-5.917969.640625 0-1.039062 0-2 0-2.960938.007813-8.488281-3.359375-16.632812-9.359375-22.640624l-16.722656-16.960938c-3.117187-3.101562-8.15625-3.101562-11.277344 0-11.125 10.90625-14.734375 27.363281-9.199219 41.921875h-19.523437c-4.417969 0-8 3.582031-8 8-.003906 19.011719 13.375 35.398437 32 39.199219v8.800781c-10.070313 7.554687-16 19.410156-16 32-.046875 8.664063 2.765625 17.097656 8 24v8h-40v-48c0-4.417969-3.578125-8-8-8h-56c-13.253906 0-24 10.746094-24 24s10.746094 24 24 24h8v8h-8c-13.253906 0-24 10.746094-24 24s10.746094 24 24 24h13.28125l-21.28125 69.679687c-1.28125 4.242188 1.121094 8.71875 5.363281 10 4.238282 1.28125 8.71875-1.117187 10-5.359374l22.558594-74.320313h116.160156l21.917969 74.320313c1.28125 4.417968 5.902344 6.960937 10.320313 5.679687 4.417968-1.28125 6.960937-5.902344 5.679687-10.320313l-21.277344-69.679687h13.277344c13.257813 0 24-10.746094 24-24zm-25.359375-128c-3.390625 9.59375-12.464844 16.003906-22.640625 16h-8c0-8.835937 7.164063-16 16-16zm-51.359375-40 10.402344 10.320313c2.992187 3.019531 4.664062 7.105468 4.636719 11.359374-.015626 4.121094-1.621094 8.074219-4.476563 11.039063l-2.402344-1.917969-3.441406-3.519531c-4.5-4.496094-7.03125-10.597656-7.039063-16.960937-.003906-3.570313.789063-7.09375 2.320313-10.320313zm-25.917969 40h14.636719c3.066406.007813 6.066406.898437 8.640625 2.558594l4.800781 4.800781c1.664063 2.574219 2.550781 5.574219 2.558594 8.640625h-8c-10.171875.003906-19.246094-6.40625-22.636719-16zm20.636719 88c-4.632813-5.386719-6.640625-12.550781-5.480469-19.5625 1.15625-7.007813 5.363282-13.148437 11.480469-16.757813 2.488281-1.433593 4.011719-4.089843 4-6.960937v-12.71875h16v12.398437c-.007813 2.871094 1.515625 5.527344 4 6.960938 6.230469 3.601562 10.511719 9.800781 11.675781 16.898438 1.160156 7.101562-.921875 14.34375-5.675781 19.742187-1.285156 1.457031-1.996094 3.335937-2 5.28125v10.71875h-32v-11.039063c-.074219-1.835937-.78125-3.585937-2-4.960937zm-118-8c-4.417969 0-8-3.582031-8-8s3.582031-8 8-8h8v16zm24-16h24v40h-24zm-32 64c0-4.417969 3.582031-8 8-8h176c4.421875 0 8 3.582031 8 8s-3.578125 8-8 8h-176c-4.417969 0-8-3.582031-8-8zm0 0"/><path d="m174.8125 336.015625h-14.640625v-24c0-22.089844-17.90625-40-40-40h-48c-4.417969 0-8-3.582031-8-8v-22.640625c.347656-17.402344-12.960937-32.046875-30.316406-33.359375-8.875-.527344-17.570313 2.660156-24 8.800781-6.257813 6.089844-9.753907 14.46875-9.683594 23.199219v72c0 4.417969 3.582031 8 8 8 4.421875 0 8-3.582031 8-8v-72c-.003906-4.402344 1.800781-8.609375 4.996094-11.636719 3.191406-3.027344 7.492187-4.605468 11.886719-4.363281 8.777343.992187 15.339843 8.527344 15.117187 17.359375v22.640625c0 13.253906 10.746094 24 24 24h48c13.257813 0 24 10.746094 24 24v56c0 4.417969 3.582031 8 8 8 4.421875 0 8-3.582031 8-8v-16h14.640625c8.832031-.222656 16.367188 6.34375 17.359375 15.121094.242187 4.394531-1.335937 8.691406-4.363281 11.886719-3.027344 3.191406-7.234375 5-11.636719 4.992187h-136c-13.253906 0-24-10.746094-24-24v-16c0-4.417969-3.578125-8-8-8-4.417969 0-8 3.582031-8 8v16c.0625 18.375 12.632813 34.347656 30.480469 38.71875l-14.480469 71.679687c-.460937 2.355469.15625 4.792969 1.683594 6.640626 1.539062 1.902343 3.871093 2.992187 6.316406 2.960937h16c3.28125.003906 6.230469-1.996094 7.441406-5.039063l30-74.960937h53.121094l30 74.960937c1.210937 3.042969 4.160156 5.042969 7.4375 5.039063h16c2.394531-.015625 4.65625-1.101563 6.160156-2.960937 1.585938-1.820313 2.261719-4.261719 1.839844-6.640626l-14.238281-70.398437c17.652344-.945313 31.195312-16.027344 30.238281-33.679687-1.3125-17.359376-15.953125-30.667969-33.359375-30.320313zm-140.078125 128h-.800781l12.800781-64h13.597656zm138.878906 0-25.597656-64h13.597656l12.800781 64zm0 0"/><path d="m216.171875 104.015625c0 13.253906 10.746094 24 24 24 13.257813 0 24-10.746094 24-24s-10.742187-24-24-24c-13.253906 0-24 10.746094-24 24zm32 0c0 4.417969-3.578125 8-8 8-4.417969 0-8-3.582031-8-8s3.582031-8 8-8c4.421875 0 8 3.582031 8 8zm0 0"/><path d="m160.171875 160.015625v40c0 4.417969 3.582031 8 8 8h144c4.421875 0 8-3.582031 8-8v-88c0-4.417969-3.578125-8-8-8-4.417969 0-8 3.582031-8 8v36.160156l-12.316406-4.878906c-13.148438-5.230469-28.148438-2.078125-38.082031 8-3.601563 3.613281-8.496094 5.644531-13.601563 5.644531-5.101563 0-9.996094-2.03125-13.597656-5.644531-9.933594-10.078125-24.933594-13.230469-38.082031-8l-12.320313 4.878906v-84.160156h128v16c0 4.417969 3.582031 8 8 8 4.421875 0 8-3.582031 8-8v-24c0-4.417969-3.578125-8-8-8h-28.238281l-37.601563-45.121094c-1.519531-1.832031-3.777343-2.894531-6.160156-2.894531-2.378906 0-4.636719 1.0625-6.15625 2.894531l-37.601563 45.121094h-28.242187c-4.417969 0-8 3.582031-8 8zm80-139.519531 22.960937 27.519531h-45.917968zm-45.679687 137.597656c7.148437-2.839844 15.304687-1.136719 20.722656 4.320312 13.796875 13.753907 36.121094 13.753907 49.917968 0 5.445313-5.472656 13.628907-7.171874 20.800782-4.320312l18.238281 7.363281v26.558594h-128v-26.558594zm0 0"/></svg>