<?xml version="1.0" encoding="iso-8859-1"?>
<!-- Generator: Adobe Illustrator 19.0.0, SVG Export Plug-In . SVG Version: 6.00 Build 0)  -->
<svg version="1.1" id="Capa_1" xmlns="http://www.w3.org/2000/svg" xmlns:xlink="http://www.w3.org/1999/xlink" x="0px" y="0px"
	 viewBox="0 0 428.4 428.4" style="enable-background:new 0 0 428.4 428.4;" xml:space="preserve">
<g>
	<g>
		<path d="M426.6,187.6c0-0.4,0-0.4,0-0.8c-3.6-29.2-13.2-56.4-27.6-80.8c0,0,0-0.4-0.4-0.4c-2.8-4.8-5.6-9.2-8.8-13.6
			c-0.4-0.4-0.8-0.8-0.8-1.2c-7.2-10-14.8-19.2-23.6-28c-34.8-34.8-81.6-57.6-134-62c-0.8,0-1.6,0-2,0C224.2,0.4,219,0,213.8,0
			s-10.4,0.4-15.6,0.8c-0.8,0-1.2,0-2,0c-10.8,0.8-21.6,2.8-32,5.2c-39.2,9.2-74.4,29.2-102,56.8c-8.8,8.8-16.4,18-23.6,28
			c-0.4,0.4-0.8,0.8-0.8,1.2c-2.4,4-5.2,8.8-8,13.6c0,0,0,0.4-0.4,0.4c-14,24.4-23.6,51.6-27.6,80.8c0,0.4,0,0.4,0,0.8
			c-1.2,8.8-1.6,17.6-1.6,26.8c0,46.4,14.8,89.2,39.6,124.4c0,0,0,0.4,0.4,0.4c0.4,0.4,0.4,0.4,0.8,0.8c3.2,4,6,8.4,9.6,12
			c0.4,0.4,0.8,0.8,1.2,1.2c3.6,4.4,7.6,8.4,11.6,12.4c3.6,3.6,7.6,7.2,11.2,10.4c0.4,0.4,0.8,0.8,1.2,1.2c4,3.6,8.4,6.8,12.8,10
			c0,0,0.4,0,0.4,0.4l0.4,0.4c8.8,6.4,18,12,27.6,16.8c0.4,0.4,1.2,0.4,1.6,0.8c4.8,2.4,9.6,4.8,14.4,6.8c0.4,0,0.8,0.4,1.2,0.4
			c5.2,2,10,4,15.2,5.6c20.4,6.4,42.4,10,64.8,10c22.4,0,44.4-3.6,64.8-10c5.2-1.6,10.4-3.6,15.2-5.6c0.4,0,0.8-0.4,1.2-0.4
			c4.8-2,9.6-4.4,14.4-6.8c0.4-0.4,1.2-0.4,1.6-0.8C321,400,330.2,394,339,388c0,0,0.4-0.4,0.8-0.4c0,0,0.4,0,0.4-0.4
			c4.4-3.2,8.4-6.4,12.4-10c0.4-0.4,0.8-0.8,1.2-1.2c4-3.2,7.6-6.8,11.6-10.4c4-4,7.6-8,11.2-12c0.4-0.4,0.8-0.8,1.2-1.6
			c3.2-4,6.4-8,9.6-12c0.4-0.4,0.4-0.4,0.8-0.8c0.4-0.4,0.4-0.4,0.4-0.8c24.8-35.2,39.6-78,39.6-124
			C428.2,205.2,427.4,196.4,426.6,187.6z M374.2,119.6l1.2-4.4c10,15.6,17.2,32.8,22,51.6c0.8,3.2,1.6,6,2,8.8c0,0.4,0,0.4,0,0.8
			c0.4,1.2,0.4,2.4,0.8,3.2l-4-2.4l-32-20.8L374.2,119.6z M279,36.4c26.4,9.6,50,24.8,69.2,44c2.8,2.8,5.2,5.6,8,8.4l-6.4,24
			l-10.8,40l-46,21.6l-32.4-23.6l-33.2-24V74l33.2-24L279,36.4z M276.2,193.6l-12,36.4l-12,36.4h-37.6h-38.4l-12-36.4l-12-36.4
			l30.8-22.4l31.6-22.4l30.8,22.4L276.2,193.6z M187,27.2c3.6-0.4,6.8-0.8,10.4-1.2c1.6,0,2.8-0.4,4.4-0.4c4.4-0.4,8.4-0.4,12.8-0.4
			s8.8,0.4,12.8,0.4c1.6,0,2.8,0,4.4,0.4c3.6,0.4,6.8,0.8,10.4,1.2c1.6,0.4,3.2,0.4,5.2,0.8l-1.6,1.2l-31.2,22.4l-30.8-22.4
			l-1.6-1.2C183.8,27.6,185.4,27.2,187,27.2z M81,80.4c19.2-19.2,42.8-34.4,69.2-44L168.6,50l33.2,24v52.8l-33.2,24l-32.4,23.6
			l-46-21.6l-10.8-40l-6.4-24C75.4,86,78.2,83.2,81,80.4z M29.8,176c0-0.4,0-0.4,0-0.8c0.4-2.8,1.2-5.6,2-8.4v-0.4
			c4.8-18.4,12.4-36,22-51.6l1.2,4.4L65,156l-32,20.8l-4,2.4C29.4,178,29.4,176.8,29.8,176z M119,376.8c-0.4-0.4-0.8-0.4-1.6-0.8
			c-4.4-2.8-8.4-5.6-12.8-8.4c-0.8-0.4-1.2-0.8-2-1.2c-4-2.8-8-6-11.6-9.2c-0.8-0.4-1.2-1.2-2-1.6c-3.6-3.2-7.2-6.8-10.8-10.4
			c-0.4-0.4-0.4-0.4-0.8-0.8h4h38.4l12,36.4l1.2,3.6C128.2,382,123.4,379.6,119,376.8z M123,318.8H81.8H57.4
			c-20-30-31.6-66-31.6-104.4c0-1.2,0-1.6,0-2.4l20.8-13.6l34-22l46.8,22l12.8,40l12.8,39.2L123,318.8z M273,372.8l-7.6,23.2
			c-16.4,4.4-33.2,7.2-50.8,7.2c-17.6-0.4-34.8-2.8-50.8-7.2l-7.6-23.2l-12.8-39.2l30-41.2h41.2h41.2l30,41.2L273,372.8z
			 M350.6,344.8c-3.6,3.6-7.2,7.2-10.8,10.4c-0.8,0.4-1.2,1.2-2,1.6c-3.6,3.2-7.6,6.4-11.6,9.2c-0.8,0.4-1.2,0.8-2,1.2
			c-4,2.8-8.4,5.6-12.8,8.4c-0.4,0.4-1.2,0.4-1.6,0.8c-4.4,2.8-9.2,5.2-14,7.6l1.2-4l12-36.4h38.4h4
			C351.4,344.4,351,344.8,350.6,344.8z M403.4,213.6c0,39.2-11.6,74.8-31.6,104.8h-24.4h-41.2l-30-41.2L289,238l12.8-40l46.8-22
			l34,22l20.8,13.6C403.4,212.4,403.4,212.8,403.4,213.6z"/>
	</g>
</g>
<g>
</g>
<g>
</g>
<g>
</g>
<g>
</g>
<g>
</g>
<g>
</g>
<g>
</g>
<g>
</g>
<g>
</g>
<g>
</g>
<g>
</g>
<g>
</g>
<g>
</g>
<g>
</g>
<g>
</g>
</svg>
