<svg id="Layer_2" height="512" viewBox="0 0 128 128" width="512" xmlns="http://www.w3.org/2000/svg" data-name="Layer 2"><path d="m126.25 32.42h-124.5a1.751 1.751 0 0 0 -1.75 1.75v82a1.751 1.751 0 0 0 1.75 1.75h124.5a1.751 1.751 0 0 0 1.75-1.75v-82a1.751 1.751 0 0 0 -1.75-1.75zm-122.75 3.5h23.417v78.5h-23.417zm121 78.5h-94.083v-78.5h94.083z"/><path d="m38.667 107.92h77.583a1.751 1.751 0 0 0 1.75-1.75v-62a1.751 1.751 0 0 0 -1.75-1.75h-77.583a1.75 1.75 0 0 0 -1.75 1.75v62a1.75 1.75 0 0 0 1.75 1.75zm1.75-62h74.083v58.5h-74.083z"/><path d="m55.083 52.42h-6.416a1.75 1.75 0 0 0 -1.75 1.75v6.416a1.75 1.75 0 0 0 3.5 0v-4.666h4.666a1.75 1.75 0 0 0 0-3.5z"/><path d="m106.25 52.42h-6.417a1.75 1.75 0 0 0 0 3.5h4.667v4.666a1.75 1.75 0 1 0 3.5 0v-6.416a1.751 1.751 0 0 0 -1.75-1.75z"/><path d="m55.083 94.42h-4.666v-4.667a1.75 1.75 0 0 0 -3.5 0v6.417a1.75 1.75 0 0 0 1.75 1.75h6.416a1.75 1.75 0 0 0 0-3.5z"/><path d="m106.25 88a1.751 1.751 0 0 0 -1.75 1.75v4.67h-4.667a1.75 1.75 0 0 0 0 3.5h6.417a1.751 1.751 0 0 0 1.75-1.75v-6.417a1.751 1.751 0 0 0 -1.75-1.753z"/><path d="m15.208 66.232a6.634 6.634 0 0 0 -6.625 6.625v4.625a6.625 6.625 0 0 0 13.25 0v-4.625a6.633 6.633 0 0 0 -6.625-6.625zm3.125 11.25a3.125 3.125 0 0 1 -6.25 0v-4.625a3.125 3.125 0 0 1 6.25 0z"/><path d="m12.292 60.67h5.833a1.751 1.751 0 0 0 1.75-1.75v-9.75a1.751 1.751 0 0 0 -1.75-1.75h-5.833a1.75 1.75 0 0 0 -1.75 1.75v9.75a1.75 1.75 0 0 0 1.75 1.75zm1.75-9.75h2.333v6.25h-2.333z"/><path d="m18.125 89.67h-5.833a1.75 1.75 0 0 0 -1.75 1.75v9.75a1.75 1.75 0 0 0 1.75 1.75h5.833a1.751 1.751 0 0 0 1.75-1.75v-9.75a1.751 1.751 0 0 0 -1.75-1.75zm-1.75 9.75h-2.333v-6.25h2.333z"/><path d="m22.305 19.72 10.007 6.417a1.755 1.755 0 0 0 .944.277h65.077a8.167 8.167 0 1 0 0-16.334h-65.077a1.746 1.746 0 0 0 -.944.277l-10.007 6.417a1.75 1.75 0 0 0 0 2.946zm80.695-1.473a4.672 4.672 0 0 1 -4.667 4.667h-18.5v-9.334h18.5a4.672 4.672 0 0 1 4.667 4.667zm-26.667-4.667v9.334h-3.5v-9.334zm-42.564 0h35.564v9.334h-35.564l-7.277-4.667z"/></svg>