<svg height="512pt" viewBox="-21 0 512 512.00064" width="512pt" xmlns="http://www.w3.org/2000/svg"><path d="m426.667969 93.867188h-91.667969c-31.621094-18.566407-66.851562-30.152344-103.320312-33.980469l7.167968-50.140625c.667969-4.667969-2.570312-8.992188-7.234375-9.6601565-.402343-.0585937-.808593-.0859375-1.214843-.0859375h-51.199219c-4.710938 0-8.535157 3.820312-8.535157 8.53125 0 .40625.03125.8125.085938 1.214844l7.167969 50.140625c-36.46875 3.828125-71.699219 15.414062-103.320313 33.980469h-49c-2.261718 0-4.429687.898437-6.03125 2.5l-17.066406 17.066406c-3.101562 3.101562-3.347656 8.042968-.574219 11.4375l75.898438 92.730468 7.609375 48.238282c.644531 4.15625 4.222656 7.226562 8.433594 7.226562v42.667969c0 4.710937 3.820312 8.53125 8.53125 8.53125h8.535156v17.066406h-17.066406c-4.167969.003907-7.726563 3.015625-8.414063 7.125l-25.601563 153.601563c-.777343 4.648437 2.359376 9.046875 7.007813 9.824218.464844.078126.933594.117188 1.40625.117188h273.066406c4.714844 0 8.535157-3.824219 8.53125-8.535156 0-.472656-.039062-.941406-.117187-1.40625l-25.597656-153.601563c-.6875-4.109375-4.246094-7.121093-8.414063-7.125h-17.070313v-17.066406h8.535157c4.714843 0 8.535156-3.820313 8.535156-8.53125v-42.667969c4.199219 0 7.773437-3.054687 8.429687-7.203125l16.375-103.730469h48.460938l2.746094 2.746094-23.183594 108.1875h-18.695312c-4.714844 0-8.535157 3.820313-8.535157 8.535156v42.664063c0 4.714844 3.820313 8.535156 8.535157 8.535156h68.265624c3.984376 0 7.4375-2.753906 8.320313-6.640625l42.667969-187.734375c.648437-2.859375-.214844-5.851562-2.289063-7.925781l-34.132812-34.132812c-1.601563-1.601563-3.769531-2.5-6.03125-2.5zm-237.628907-76.800782h31.519532l-5.972656 41.59375c-6.542969-.246094-13.082032-.246094-19.625 0zm107.996094 76.800782h-184.472656c59.027344-24.621094 125.445312-24.621094 184.472656 0zm-57.667968 162.132812h-69.121094l-7.679688-145.066406h84.414063zm-219.339844-135.960938 9.105468-9.105468h31.847657l11.550781 73.300781zm58.222656-9.105468h67.25l7.679688 145.066406h-52.027344zm22.84375 247.464844h52.054688l-7.585938 136.535156h-67.21875zm61.523438 136.535156 7.589843-136.535156h69.1875l7.585938 136.535156zm168.636718 0h-67.183594l-7.585937-136.535156h52.054687zm-49.65625-153.601563h-153.597656v-17.066406h153.597656zm17.066406-34.132812h-187.730468v-34.132813h187.730468zm9.78125-51.199219h-51.984374l7.636718-145.066406h67.25zm102.859376 59.734375h-52.90625v-25.601563h17.066406c4.027344 0 7.503906-2.8125 8.347656-6.75l25.597656-119.464843c.605469-2.828125-.265625-5.773438-2.3125-7.816407l-8.53125-8.535156c-1.601562-1.601562-3.773437-2.5-6.035156-2.5h-49.296875l5.386719-34.132812h74.511718l28.28125 28.304687zm0 0"/></svg>