<svg height="512" viewBox="0 0 45 60" width="512" xmlns="http://www.w3.org/2000/svg"><g id="026---Desk-Lamp"><path id="Shape" d="m45 54c0-1.1045695-.8954305-2-2-2h-6v-1c0-1.6568542-1.3431458-3-3-3h-2c-1.6568542 0-3 1.3431458-3 3v1h-12c-.54-12.47-11-14.84-11-23 0-6 1.13-12.09 9.16-12.89 1 2.9 2.6 4.09 5.51 7 .5632998.567938 1.3300874.887395 2.13.887395s1.5667002-.319457 2.13-.887395l1.45-1.45c2.3632186 1.698116 5.608693 1.4341274 7.6664102-.6235898s2.3217058-5.3031916.6235898-7.6664102l1.45-1.45c.567938-.5632998.887395-1.3300874.887395-2.13 0-.79991261-.319457-1.5667002-.887395-2.13l-3-3c-2.9673288-2.95259641-7.3674722-3.93689019-11.31-2.53-3.97-4.07-9.34-1.84-8.81 2.75.2234449 1.51661901.9655469 2.90894369 2.1 3.94-.1535572.42075047-.2771984.85182351-.37 1.29-9.73.83-14.73 7.17-14.73 18.89 0 11.43 11 14.51 11 24v4c0 1.6568542 1.3431458 3 3 3h28c1.6568542 0 3-1.3431458 3-3zm-14-3c0-.5522847.4477153-1 1-1h2c.5522847 0 1 .4477153 1 1v1h-4zm1.62-31.38c-1.2833597 1.262616-3.252089 1.5122886-4.81.61l5.42-5.42c.9022886 1.557911.652616 3.5266403-.61 4.81zm-.88-13.5 3 3c.1924127.18814048.3008755.44589129.3008755.715 0 .2691087-.1084628.5268595-.3008755.715l-11.23 11.15c-.1881405.1924127-.4458913.3008755-.715.3008755s-.5268595-.1084628-.715-.3008755l-3-3c-3.4738711-3.4959625-3.4559625-9.14612892.04-12.62s9.1461289-3.45596247 12.62.04zm-16.74-1.49c-.33-2.73 2.59-3.44 4.83-1.58-1.5687651.92347636-2.8765236 2.23123489-3.8 3.8-.5468271-.62740539-.9040426-1.39732622-1.03-2.22zm-13 24.37c0-10.47 4.11-16 12.53-16.86-.0224929.6693188.021051 1.3392249.13 2-10.66 1.23-10.66 11.07-10.66 14.86 0 9.28 10.43 11.34 11 23h-2c-.72-9.75-11-12.75-11-23zm41 28c0 .5522847-.4477153 1-1 1h-28c-.5522847 0-1-.4477153-1-1v-3h30z"/><path id="Shape" d="m18.71 10.76c-.3612844 1.4776439-.2313988 3.0327608.37 4.43.2181525.508102.806898.7431525 1.315.525s.7431525-.806898.525-1.315c-.430533-.9961238-.5253024-2.1052764-.27-3.16.0726209-.2614316.035891-.5411504-.1017615-.7749711-.1376524-.2338206-.3644094-.4016686-.6282385-.4650289-.2614422-.0625952-.5370763-.01728934-.764727.1256979-.2276506.1429872-.3881425.3716116-.445273.6343021z"/><path id="Shape" d="m37.29 23.29c-.1893127.1877666-.2957983.4433625-.2957983.71s.1064856.5222334.2957983.71l1 1c.2536586.2536586.623374.3527235.969878.259878.3465041-.0928454.6171546-.3634959.71-.71.0928455-.346504-.0062194-.7162194-.259878-.969878l-1-1c-.1877666-.1893127-.4433625-.2957983-.71-.2957983s-.5222334.1064856-.71.2957983z"/><path id="Shape" d="m40 21c.5522847 0 1-.4477153 1-1s-.4477153-1-1-1h-1c-.5522847 0-1 .4477153-1 1s.4477153 1 1 1z"/><path id="Shape" d="m33 26v1c0 .5522847.4477153 1 1 1s1-.4477153 1-1v-1c0-.5522847-.4477153-1-1-1s-1 .4477153-1 1z"/></g></svg>