<?xml version="1.0" encoding="iso-8859-1"?>
<!-- Generator: Adobe Illustrator 19.0.0, SVG Export Plug-In . SVG Version: 6.00 Build 0)  -->
<svg version="1.1" id="Capa_1" xmlns="http://www.w3.org/2000/svg" xmlns:xlink="http://www.w3.org/1999/xlink" x="0px" y="0px"
	 viewBox="0 0 511.999 511.999" style="enable-background:new 0 0 511.999 511.999;" xml:space="preserve">
<g>
	<g>
		<path d="M212.702,205.719c-4.142,0-7.5,3.358-7.5,7.5v6.704c0,4.142,3.358,7.5,7.5,7.5c4.142,0,7.5-3.358,7.5-7.5v-6.704
			C220.202,209.077,216.844,205.719,212.702,205.719z"/>
	</g>
</g>
<g>
	<g>
		<path d="M299.297,205.719c-4.142,0-7.5,3.358-7.5,7.5v6.704c0,4.142,3.358,7.5,7.5,7.5c4.142,0,7.5-3.358,7.5-7.5v-6.704
			C306.798,209.077,303.44,205.719,299.297,205.719z"/>
	</g>
</g>
<g>
	<g>
		<path d="M279.2,235.02c-3.118-2.726-7.857-2.409-10.583,0.71c-3.064,3.505-7.663,5.516-12.617,5.516
			c-4.954,0-9.552-2.011-12.617-5.516c-2.727-3.119-7.464-3.437-10.583-0.711c-3.119,2.726-3.437,7.464-0.711,10.583
			c5.913,6.764,14.629,10.645,23.911,10.645s17.997-3.879,23.91-10.644C282.636,242.486,282.318,237.747,279.2,235.02z"/>
	</g>
</g>
<g>
	<g>
		<path d="M244.971,217.303c-0.001,4.714,4.937,8.535,11.029,8.535s11.029-3.821,11.029-8.535
			C267.029,212.589,244.971,212.589,244.971,217.303z"/>
	</g>
</g>
<g>
	<g>
		<path d="M501.284,132.873c0,0-10.568-17.506-10.569-17.509l-28.104-46.519c-10.16-16.816-25.857-29.944-44.197-36.968
			c0,0-80.504-30.829-80.544-30.845c-7.428-2.845-16.061,0.374-19.749,7.431C305.967,31.726,282.163,46.178,256,46.178
			c-26.161,0-49.965-14.452-62.122-37.715c-3.681-7.044-12.349-10.265-19.748-7.43l-26.518,10.154L93.585,31.876
			C75.245,38.9,59.55,52.028,49.387,68.845c0,0-28.104,46.519-28.105,46.521l-10.565,17.501
			c-6.976,11.537-5.514,26.564,3.558,36.546c0,0,31.364,34.487,31.37,34.494c9.34,10.269,24.929,12.966,37.174,6.431
			c0,0,16.999-9.068,17.001-9.069l3.229-1.722c-7.129,27.867-19.483,87.053-18.685,160.147c0.045,4.114,3.394,7.418,7.498,7.418
			c0.028,0,0.056,0,0.083,0c4.142-0.045,7.463-3.439,7.417-7.582c-1.068-97.747,21.815-169.531,22.794-172.553
			c2.04-6.293-4.834-12.039-10.663-8.931l-13.586,7.242l-60.895-66.954l25.213-41.73C70.67,62.63,83.713,51.721,98.95,45.886
			c0,0,47.31-18.118,47.324-18.124c-0.454,0.174,10.395,17.882,11.498,19.408c8.077,11.174,18.056,20.94,29.397,28.777
			c10.129,6.997,21.136,12.347,32.697,15.95c25.807,8.042,54.129,7.162,79.38-2.484c22.203-8.483,41.801-23.58,55.565-42.971
			c4.174-5.881,7.843-12.155,10.914-18.68l47.324,18.124c15.238,5.835,28.28,16.745,36.723,30.716l25.211,41.732l-60.895,66.954
			c0,0-13.562-7.229-13.586-7.242c-5.832-3.109-12.695,2.658-10.662,8.933c0.349,1.077,8.611,26.834,15.081,67.798
			c0.646,4.091,4.488,6.884,8.578,6.238c4.091-0.646,6.884-4.487,6.238-8.578c-3.56-22.539-7.681-40.706-10.799-52.895l20.24,10.796
			c12.26,6.54,27.829,3.847,37.173-6.43l31.373-34.496C506.795,159.431,508.257,144.404,501.284,132.873z M84.257,192.571
			c-0.001,0-8.497,4.532-8.498,4.533c-6.173,3.294-14.2,2.006-19.014-3.289l-31.369-34.493c-4.713-5.186-5.445-12.699-1.817-18.697
			l5.367-8.891L84.257,192.571z M351.616,22.492c-2.923,6.037-6.46,11.852-10.481,17.219C321.319,66.159,289.346,82.367,256,82.367
			c-21.682,0-42.535-6.488-60.304-18.763c-11.192-7.729-20.894-17.626-28.393-28.971c-2.571-3.89-4.859-7.958-6.919-12.142
			c-0.018-0.037-0.034-0.076-0.052-0.113l19.163-7.337c0.361-0.138,0.849-0.089,1.088,0.369
			c14.752,28.231,43.65,45.769,75.417,45.769c31.768,0,60.667-17.538,75.416-45.768c0.239-0.458,0.729-0.507,1.089-0.37
			l19.163,7.338C351.65,22.416,351.634,22.455,351.616,22.492z M486.626,159.32c0,0-31.361,34.484-31.372,34.496
			c-4.775,5.25-12.757,6.627-19.014,3.288l-8.497-4.533l55.332-60.837l5.371,8.896C492.069,146.623,491.337,154.136,486.626,159.32z
			"/>
	</g>
</g>
<g>
	<g>
		<path d="M423.797,282.788c-0.452-4.117-4.153-7.089-8.274-6.636c-4.117,0.452-7.088,4.157-6.636,8.274
			c6.717,61.135,4.568,120.438-6.385,176.382h-94.809l-13.694-42.449c-3.38-10.48-13.052-17.523-24.065-17.523h-27.865
			c-11.013,0-20.685,7.042-24.065,17.523l-13.694,42.449h-94.808c-4.524-23.141-7.571-47.213-9.067-71.652
			c-0.253-4.135-3.8-7.279-7.944-7.028c-4.134,0.253-7.281,3.81-7.027,7.944c1.669,27.265,5.221,54.102,10.556,79.766
			c0,0.002,0,0.003,0.001,0.005c1.332,6.38,2.768,12.7,4.27,18.786c3.402,13.761,15.67,23.371,29.832,23.371h51.079
			c13.376,0,25.12-8.55,29.224-21.277l21.853-67.756c1.375-4.264,5.309-7.128,9.789-7.128h27.865c4.48,0,8.414,2.864,9.789,7.128
			l21.853,67.757c4.104,12.727,15.849,21.276,29.224,21.276h51.079c14.163,0,26.43-9.61,29.836-23.385
			c0.68-2.772,1.339-5.535,1.983-8.322c0.862-3.79,1.609-7.209,2.284-10.457c0-0.002,0-0.004,0.001-0.006
			C428.298,410.597,430.927,347.668,423.797,282.788z M196.148,486.119c-2.099,6.508-8.106,10.88-14.948,10.88h-51.079
			c-7.248,0-13.528-4.922-15.27-11.966c-0.745-3.021-1.474-6.102-2.182-9.222h86.802L196.148,486.119z M397.148,485.028
			c-1.743,7.048-8.022,11.971-15.271,11.971h-51.079c-6.842,0-12.85-4.372-14.948-10.879l-3.323-10.309h86.805
			c-0.084,0.373-0.169,0.75-0.256,1.13C398.452,479.637,397.809,482.336,397.148,485.028z"/>
	</g>
</g>
<g>
	<g>
		<path d="M356.555,178.273c0-20.956-17.049-38.004-38.004-38.004c-10.364,0-20.185,4.252-27.289,11.586
			c-10.83-4.125-22.75-6.414-35.262-6.414c-12.512,0-24.432,2.289-35.263,6.414c-7.104-7.333-16.925-11.586-27.289-11.586
			c-20.956,0-38.004,17.049-38.004,38.004c0,11.211,4.845,21.587,13.175,28.751c-1.519,5.797-2.323,11.836-2.323,18.038
			c0,43.903,40.241,79.622,89.703,79.622s89.703-35.718,89.703-79.622c0-6.202-0.804-12.241-2.323-18.038
			C351.71,199.861,356.555,189.483,356.555,178.273z M170.445,178.274c0-12.685,10.32-23.003,23.003-23.003
			c4.502,0,8.839,1.324,12.521,3.714c-5.414,3.24-10.392,6.997-14.881,11.178c-6.601,6.149-12.249,13.372-16.454,21.365
			C171.94,187.717,170.445,183.122,170.445,178.274z M256,289.683c-41.191,0-74.702-28.988-74.702-64.621
			c0-25.419,17.557-46.969,40.004-57.201c10.375-4.729,22.178-7.42,34.699-7.42c26.763,0,54.374,13.046,67.553,37.067
			c0.021,0.038,0.039,0.077,0.06,0.114c4.578,8.388,7.089,17.876,7.089,27.44C330.702,260.695,297.19,289.683,256,289.683z
			 M337.366,191.528c-0.148-0.278-0.589-1.073-0.656-1.196c-3.188-5.82-7.145-11.21-11.676-16.055
			c-5.466-5.847-11.859-11.018-19.003-15.293c3.681-2.391,8.018-3.715,12.521-3.715c12.685,0,23.003,10.319,23.003,23.003
			C341.555,183.121,340.06,187.716,337.366,191.528z"/>
	</g>
</g>
<g>
</g>
<g>
</g>
<g>
</g>
<g>
</g>
<g>
</g>
<g>
</g>
<g>
</g>
<g>
</g>
<g>
</g>
<g>
</g>
<g>
</g>
<g>
</g>
<g>
</g>
<g>
</g>
<g>
</g>
</svg>
