<svg id="Layer_2" height="512" viewBox="0 0 128 128" width="512" xmlns="http://www.w3.org/2000/svg" data-name="Layer 2"><path d="m124.908 60.063-12.574-37.371a1.807 1.807 0 0 0 -.676-.89l-31.676-21.502a1.834 1.834 0 0 0 -.982-.3h-30a1.831 1.831 0 0 0 -.982.3l-31.676 21.5a1.807 1.807 0 0 0 -.676.89l-12.574 37.373a1.75 1.75 0 0 0 .644 1.985l25.842 18.352v45.85a1.75 1.75 0 0 0 1.75 1.75h65.344a1.75 1.75 0 0 0 1.75-1.75v-45.85l25.842-18.356a1.75 1.75 0 0 0 .644-1.981zm-26.486-14.548 11.756-18.258 7.485 22.243-19.241 13.909zm-34.422-27.135-11.446-14.88h22.892zm-18.556-7.719a10.513 10.513 0 0 1 3.256-6.435l13.02 16.926-5.838 6.377-7.772-8.548a10.518 10.518 0 0 1 -2.666-8.32zm34.449 8.32-7.772 8.548-5.838-6.377 13.017-16.926a10.522 10.522 0 0 1 .59 14.755zm-62.071 8.276 11.756 18.258v17.894l-19.241-13.909zm-11 32.691 2.346-6.971 20.41 14.751v8.382zm88.1 64.552h-61.844v-79.5a1.754 1.754 0 0 0 -.278-.947l-13.079-20.314 22.612-15.349a13.822 13.822 0 0 0 3.185 12.946l9.062 9.964a1.748 1.748 0 0 0 1.292.573 1.751 1.751 0 0 0 1.291-.568l5.084-5.554v19.249a1.75 1.75 0 0 0 3.5 0v-19.247l5.084 5.554a1.751 1.751 0 0 0 1.291.568 1.748 1.748 0 0 0 1.298-.575l9.062-9.966a13.822 13.822 0 0 0 3.185-12.944l22.612 15.349-13.079 20.314a1.754 1.754 0 0 0 -.278.947zm3.5-48.39v-8.382l20.409-14.751 2.346 6.971z"/><path d="m86.667 52.583h-10a1.75 1.75 0 0 0 0 3.5h10a1.75 1.75 0 0 0 0-3.5z"/></svg>