<svg id="Capa_1" enable-background="new 0 0 512.001 512.001" height="512" viewBox="0 0 512.001 512.001" width="512" xmlns="http://www.w3.org/2000/svg"><g id="XMLID_867_"><g id="XMLID_2394_"><path id="XMLID_2397_" d="m172 272.684c19.974 0 39.948-7.603 55.154-22.809 30.412-30.413 30.412-79.896 0-110.309-30.412-30.411-79.896-30.411-110.309 0-30.412 30.413-30.412 79.896 0 110.309 15.207 15.207 35.182 22.809 55.155 22.809zm-17.084-46.736c5.444 7.796 8.891 16.843 9.994 26.298-9.259-1.131-18.289-4.486-26.228-10.064zm-30.376 2.092c-5.58-7.94-8.934-16.971-10.065-26.23 9.453 1.102 18.502 4.551 26.299 9.996zm88.472 7.693c-8.009 8.009-17.8 13.167-28.106 15.503-1.434-14.383-6.879-28.12-15.69-39.588l19.71-19.71c11.467 8.811 25.205 14.271 39.586 15.704-2.338 10.302-7.495 20.087-15.5 28.091zm16.513-48.102c-9.45-1.103-18.5-4.55-26.298-9.994l16.234-16.234c5.579 7.94 8.933 16.97 10.064 26.228zm-40.441-24.136c-5.444-7.796-8.891-16.844-9.994-26.299 9.259 1.131 18.289 4.486 26.228 10.065zm-58.095-9.786c8.009-8.009 17.8-13.167 28.106-15.503 1.433 14.383 6.879 28.121 15.69 39.588l-19.713 19.713c-11.467-8.811-25.204-14.256-39.587-15.69 2.336-10.307 7.494-20.098 15.504-28.108z"/><path id="XMLID_2405_" d="m512 142.852c0-5.523-4.478-10-10-10h-55.9c-5.522 0-10 4.477-10 10s4.478 10 10 10h45.9v31.87h-151.758c-9.56-9.597-17.608-20.334-24.038-31.87h39.9c5.522 0 10-4.477 10-10s-4.478-10-10-10h-49.133c-9.096-24.42-11.594-51.197-6.625-77.624l3.397-18.073c.891-4.739-1.728-9.439-6.226-11.176l-65.52-25.306c-3.691-1.428-7.876-.541-10.674 2.257-27.197 27.197-71.451 27.197-98.648 0-2.799-2.798-6.984-3.683-10.674-2.257l-65.52 25.306c-4.498 1.737-7.116 6.437-6.226 11.176l3.397 18.073c8.942 47.563-6.268 96.272-40.685 130.298-1.9 1.878-2.97 4.439-2.97 7.111v211.629c0 5.523 4.478 10 10 10h186v87.735c0 5.523 4.478 10 10 10h128c5.522 0 10-4.477 10-10v-97.735-109.055c0-5.492 4.468-9.96 9.96-9.96s9.96 4.468 9.96 9.96v206.79c0 5.523 4.478 10 10 10h128.083c5.522 0 10-4.477 10-10zm-188 152.359v99.055h-35.279v-64.349c0-39.217 12.377-76.53 35.279-107.483zm-260.689-243.678-1.86-9.896 51.932-20.058c33.563 28.982 83.674 28.982 117.236 0l51.932 20.058-1.86 9.896c-9.685 51.517 5.548 104.205 40.824 142.54-15.858 17.304-28.452 37.059-37.478 58.85-10.163 24.534-15.315 50.438-15.315 76.994v64.349h-192.722v-64.349c0-26.556-5.152-52.46-15.315-76.994-9.094-21.955-21.811-41.841-37.837-59.237 35.021-38.302 50.115-90.811 40.463-142.153zm-43.311 169.942c23.36 31.141 36 68.818 36 108.442v64.349h-36zm196 192.791h25.955c1.252 7.936 1.885 15.98 1.885 24.007v53.728h-27.84zm47.84 77.735v-53.728c0-8.02-.571-16.054-1.679-24.007h61.839v77.735zm90.12-226.75c-3.491 0-6.842.606-9.96 1.709v-62.238h148v113.6c-30.986 32.478-48 74.907-48 119.952v53.728h-60.08v-196.79c0-16.521-13.44-29.961-29.96-29.961zm110.04 226.75v-53.728c0-32.168 9.806-62.829 28-88.571v142.298h-28z"/><path id="XMLID_2414_" d="m401.1 152.848c2.641 0 5.21-1.06 7.08-2.92 1.86-1.87 2.93-4.45 2.93-7.08s-1.069-5.2-2.93-7.07c-1.87-1.86-4.439-2.93-7.08-2.93-2.63 0-5.2 1.07-7.07 2.93-1.859 1.86-2.92 4.44-2.92 7.07 0 2.64 1.061 5.21 2.92 7.08 1.87 1.86 4.44 2.92 7.07 2.92z"/></g></g></svg>