<svg height="478pt" viewBox="0 -24 478 478" width="478pt" xmlns="http://www.w3.org/2000/svg"><path d="m392.484375 118.578125c8.777344.015625 17.199219-3.464844 23.398437-9.675781l4.070313-4.070313c1.3125-1.3125 2.050781-3.089843 2.050781-4.949219 0-1.855468-.738281-3.636718-2.050781-4.949218l-36.902344-36.898438c-2.734375-2.734375-7.164062-2.734375-9.898437 0l-4.066406 4.066406c-9.472657 9.460938-12.304688 23.695313-7.183594 36.0625 5.125 12.363282 17.195312 20.421876 30.582031 20.414063zm-14.355469-45.664063 26.9375 26.945313c-7.5625 6.628906-18.972656 6.253906-26.082031-.859375-7.113281-7.113281-7.488281-18.523438-.855469-26.085938zm92.871094 181.941407h-169.199219c1.914063-1.109375 3.1875-3.058594 3.4375-5.253907l1.855469-16.171874 16.167969 1.847656c1.84375.226562 3.703125-.296875 5.15625-1.457032 1.457031-1.15625 2.386719-2.847656 2.582031-4.699218l1.851562-16.171875 16.148438 1.855469c1.84375.214843 3.699219-.3125 5.152344-1.46875s2.386718-2.839844 2.59375-4.6875l1.855468-16.171876 16.171876 1.84375c2.1875.25 4.367187-.554687 5.871093-2.167968l.886719.890625c6.527344 6.53125 16.769531 7.523437 24.429688 2.367187 7.660156-5.160156 10.589843-15.023437 6.992187-23.527344l59.285156-59.300781c7.421875-7.449219 7.652344-19.425781.523438-27.15625-7.125-7.730469-19.078125-8.46875-27.105469-1.679687l-51.414062-51.417969c6.816406-8.023437 6.082031-19.996094-1.660157-27.132813-7.738281-7.136718-19.730469-6.890624-27.179687.550782l-59.285156 59.289062c-8.503907-3.601562-18.367188-.667968-23.523438 6.992188-5.15625 7.65625-4.164062 17.898437 2.371094 24.421875l.28125.285156-158.113282 158.121094h-120.132812c-3.867188 0-7 3.132812-7 7v161.558593c.00390625 3.863282 3.136719 6.992188 7 6.992188h464c3.867188 0 7-3.132812 7-7v-161.550781c0-3.867188-3.132812-7-7-7zm-7 134.1875c-22.433594 3.25-106.511719 13.683593-185.457031.523437-96.980469-16.160156-175.707031-21.414062-264.519531 1.746094v-51.824219c30 19.667969 66.464843 23.890625 95.90625 25.203125l.613281-14c-30.21875-1.347656-68.207031-5.890625-96.519531-28.523437v-24.246094c26.191406.65625 49.804687 12.960937 74.691406 25.96875 27.414062 14.324219 55.753906 29.140625 90.824218 30.753906 2.042969.09375 4.085938.140625 6.125.140625 38.058594 0 75.863282-15.917968 109.414063-30.050781 26.402344-11.125 51.375-21.632813 71.976563-22.5625 24.503906-1.152344 45.65625 6.855469 64.320312 13.878906 10.480469 4.441407 21.421875 7.710938 32.625 9.742188v33.050781c-69.886719 15.535156-234.976562-.484375-236.679688-.652344l-1.375 13.925782c4.679688.464843 77.816407 7.570312 147.527344 7.570312 33.6875 0 66.550782-1.667969 90.527344-6.539062zm-333.96875-120.1875h23.96875c13.527344 10.757812 29.011719 18.789062 45.601562 23.644531l3.636719-13.519531c-8.425781-2.527344-16.570312-5.921875-24.300781-10.125h113.535156c-4.402344 2.117187-8.828125 4.355469-13.296875 6.617187-20 10.140625-40.667969 20.625-68.308593 25.445313-34.800782 6.058593-51.546876-4.691407-74.691407-19.601563-6.238281-4-12.898437-8.277344-20.332031-12.476562zm151.15625-14 .109375-.941407 8.253906.941407zm94.117188-239.203125c1.410156-1.460938 3.503906-2.050782 5.472656-1.535156 1.96875.515624 3.503906 2.050781 4.019531 4.019531s-.070313 4.058593-1.53125 5.472656l-3.824219 3.824219-24.621094 24.613281 9.898438 9.898437 19.667969-19.667968 56.269531 56.273437c2.734375 2.730469 7.164062 2.730469 9.894531 0l3.835938-3.828125c2.226562-2.125 5.726562-2.125 7.949219 0 2.191406 2.199219 2.191406 5.753906 0 7.953125l-58.28125 58.289063-43.519532-43.515625-43.535156-43.519531zm-80.441407 63.410156c2.070313-2.0625 5.421875-2.0625 7.492188 0l.183593.183594 96.402344 96.398437c2.066406 2.070313 2.066406 5.421875-.003906 7.492188-2.066406 2.066406-5.421875 2.066406-7.488281-.003907l-9.855469-9.855468-38.402344-38.398438-48.328125-48.328125c-.996093-.992187-1.554687-2.339843-1.554687-3.746093 0-1.402344.558594-2.75 1.554687-3.742188zm.285157 27.574219 7.898437 7.902343-48 48 9.902344 9.898438 48-48 55 55.007812-14.714844-1.679687c-3.835937-.4375-7.304687 2.316406-7.746094 6.15625l-1.851562 16.171875-16.171875-1.84375c-3.835938-.433594-7.300782 2.320312-7.746094 6.15625l-1.851562 16.171875-16.167969-1.847656c-1.84375-.214844-3.695313.316406-5.152344 1.46875-1.453125 1.15625-2.386719 2.839843-2.59375 4.6875l-1.851563 16.171875-16.175781-1.851563c-3.839843-.429687-7.300781 2.324219-7.75 6.160157l-1.082031 9.484374h-120.164062zm-212.097657 162.21875c16.039063 6.363281 31.316407 14.496093 45.550781 24.25 19.351563 12.457031 36.558594 23.53125 63.828126 23.53125 6.988281-.035157 13.964843-.679688 20.847656-1.921875 29.699218-5.179688 52.292968-16.636719 72.234375-26.75 20.214843-10.246094 37.675781-19.101563 57.667969-19.101563h120.800781v42.796875c-9.476563-2.0625-18.746094-4.976562-27.695313-8.707031-19.921875-7.492187-42.523437-16-69.878906-14.753906-23.105469 1.039062-49.179688 12-76.796875 23.636719-35.640625 15.015624-72.523437 30.542968-109.457031 28.828124-32-1.472656-58.925782-15.5625-84.988282-29.199218-26.527343-13.867188-51.660156-26.925782-81.175781-27.558594v-15.050781zm-69.039062 147.550781v-10.632812c88.160156-23.730469 163.28125-18.894532 262.214843-2.398438 29.046876 4.597656 58.417969 6.820312 87.820313 6.648438 33.429687-.046876 66.820313-2.335938 99.941406-6.851563v13.234375zm294.1875-70.191406-3.132813-13.648438c35.710938-8.191406 87.433594-16.496094 124.28125 5.871094l-7.277344 11.96875c-32.484374-19.726562-80.550781-11.839844-113.871093-4.191406zm0 0"/></svg>