<svg id="Layer_1" height="512" viewBox="0 0 128 128" width="512" xmlns="http://www.w3.org/2000/svg" data-name="Layer 1"><path d="m44.035 29.162 1.93-1.035v22.894a1.75 1.75 0 0 0 1.75 1.75h10.711a1.75 1.75 0 0 0 1.75-1.75v-9.808h7.624v9.808a1.75 1.75 0 0 0 1.75 1.75h10.715a1.75 1.75 0 0 0 1.75-1.75v-22.886l1.958 1.037a1.75 1.75 0 1 0 1.639-3.092l-20.93-11.089a1.747 1.747 0 0 0 -1.646 0l-20.655 11.087a1.75 1.75 0 0 0 1.654 3.084zm19.832-10.641 14.647 7.76v22.99h-7.214v-9.808a1.75 1.75 0 0 0 -1.75-1.75h-11.124a1.75 1.75 0 0 0 -1.75 1.75v9.808h-7.211v-23.022z"/><path d="m113.961 83.945a1.747 1.747 0 0 0 -2.424-.5l-2.573 1.695-15.774-23.56 20.222-12.344a1.751 1.751 0 0 0 -1.824-2.988l-32.446 19.806a1.751 1.751 0 0 0 -.532 2.482l1.225 1.789h-17.207a10.037 10.037 0 0 0 -5.636 1.725l-8.5-2.2.9-1.311a1.751 1.751 0 0 0 -.532-2.482l-32.448-19.81a1.751 1.751 0 0 0 -1.824 2.988l20.222 12.345-15.775 23.562-2.573-1.695a1.75 1.75 0 1 0 -1.926 2.922l4.012 2.643 10.152 6.688a1.749 1.749 0 0 0 2.407-.473l2.293-3.334 14.486 13.347 7.722 7.466a4.79 4.79 0 0 0 6.705.33 4.712 4.712 0 0 0 .924-1.164 5.31 5.31 0 0 0 8.046-2.706 5.314 5.314 0 0 0 6.9-6.139 5.336 5.336 0 0 0 4.2-4.926c.007-.118-.013-.232-.014-.349l11.791-6.515 2.734 3.992a1.749 1.749 0 0 0 2.406.471l10.154-6.689 4.012-2.643a1.749 1.749 0 0 0 .495-2.423zm-31.73-10.12 7.617 11.123-19.361-3.469a4.715 4.715 0 0 0 -3.454.72l-7.2 4.8a7.683 7.683 0 0 1 -9.556-.872 2.041 2.041 0 0 1 0-2.934l7.76-7.511a6.567 6.567 0 0 1 4.589-1.857zm-53.037 18.009-7.236-4.767 15.842-23.667 7.66 4.676zm49.067 7.355a1.866 1.866 0 0 1 -2.636-.149l-8.106-9.083a1.75 1.75 0 0 0 -2.611 2.33l9.427 10.562a1.868 1.868 0 1 1 -2.786 2.488l-1.32-1.479-9.712-10.881a1.75 1.75 0 1 0 -2.611 2.33l9.7 10.873.007.01a1.866 1.866 0 0 1 -.149 2.636 1.869 1.869 0 0 1 -2.637-.149l-10.81-12.117a1.75 1.75 0 1 0 -2.611 2.33l8.674 9.72a1.283 1.283 0 0 1 -1.914 1.709c-.028-.032-.059-.063-.089-.093l-7.777-7.513-.018-.014-.014-.015-14.874-13.709 11-16.056 7.471 1.937-6.016 5.823a5.542 5.542 0 0 0 0 7.962 11.2 11.2 0 0 0 13.933 1.271l6.715-4.477 9.923 11.118a1.867 1.867 0 0 1 -.151 2.637zm2.763-4.967-7.754-8.688 18.1 3.242-10.2 5.638c-.056-.062-.092-.131-.146-.191zm17.781-2.389-14.198-20.733v-.007l-2.067-3.012 7.66-4.681 15.841 23.662z"/></svg>