<?xml version="1.0" encoding="iso-8859-1"?>
<!-- Generator: Adobe Illustrator 19.0.0, SVG Export Plug-In . SVG Version: 6.00 Build 0)  -->
<svg version="1.1" id="Capa_1" xmlns="http://www.w3.org/2000/svg" xmlns:xlink="http://www.w3.org/1999/xlink" x="0px" y="0px"
	 viewBox="0 0 480.002 480.002" style="enable-background:new 0 0 480.002 480.002;" xml:space="preserve">
<g>
	<g>
		<path d="M472.001,392H163.313L53.657,282.344c-3.07-3.178-8.134-3.266-11.312-0.196s-3.266,8.134-0.196,11.312
			c0.064,0.067,0.13,0.132,0.196,0.196l38.528,38.528L36.001,392h-28c-4.418,0-8,3.582-8,8s3.582,8,8,8h41.056L9.345,467.56
			c-2.452,3.676-1.46,8.644,2.216,11.096s8.644,1.46,11.096-2.216L68.281,408h99.72v64c0,4.418,3.582,8,8,8s8-3.582,8-8v-64h219.72
			l45.6,68.44c2.452,3.676,7.42,4.668,11.096,2.216s4.668-7.42,2.216-11.096L422.945,408h49.056c4.418,0,8-3.582,8-8
			S476.419,392,472.001,392z M56.001,392l36.296-48.392L140.689,392H56.001z"/>
	</g>
</g>
<g>
	<g>
		<path d="M448.001,336H195.313l-11.312-11.312V163.2c4.769,3.088,10.319,4.753,16,4.8c6.407-0.036,12.636-2.113,17.784-5.928
			c3.719-2.656,8.713-2.656,12.432,0c10.534,7.917,25.034,7.917,35.568,0c3.719-2.656,8.713-2.656,12.432,0
			c11.28,8.443,26.937,7.808,37.496-1.52c2.744-2.291,4.286-5.714,4.184-9.288C317.065,80.536,254.169,24,176.001,24
			C90.025,24,34.585,80.528,32.089,151.248c-0.089,3.581,1.456,7.008,4.2,9.312c5.477,4.746,12.466,7.383,19.712,7.44
			c6.407-0.036,12.636-2.113,17.784-5.928c3.719-2.656,8.713-2.656,12.432,0c10.534,7.917,25.034,7.917,35.568,0
			c3.719-2.656,8.713-2.656,12.432,0c9.886,7.492,23.42,7.944,33.784,1.128v145.52l-58.344-58.344
			c-3.124-3.123-8.188-3.123-11.312,0l-24,24c-3.123,3.124-3.123,8.188,0,11.312l96,96c1.505,1.489,3.539,2.32,5.656,2.312h272
			c4.418,0,8-3.582,8-8v-32C456.001,339.582,452.419,336,448.001,336z M160.369,149.136c-2.414,1.821-5.345,2.824-8.368,2.864
			c-3.023-0.043-5.953-1.046-8.368-2.864c-9.333-6.735-21.931-6.735-31.264,0c-4.923,3.825-11.813,3.825-16.736,0
			c-9.333-6.735-21.931-6.735-31.264,0c-2.414,1.821-5.345,2.824-8.368,2.864c-2.795-0.031-5.517-0.898-7.816-2.488
			C51.641,84.912,103.865,40,176.001,40c68.336,0,124,47.92,127.792,109.536c-2.296,1.576-5.008,2.433-7.792,2.464
			c-3.023-0.043-5.953-1.046-8.368-2.864c-9.333-6.736-21.931-6.736-31.264,0c-4.923,3.825-11.813,3.825-16.736,0
			c-9.333-6.736-21.931-6.736-31.264,0c-4.923,3.825-11.813,3.825-16.736,0C182.3,142.4,169.702,142.4,160.369,149.136z
			 M440.001,368H179.313l-88-88l12.688-12.688l66.336,66.336l16,16c1.501,1.505,3.539,2.352,5.664,2.352h248V368z"/>
	</g>
</g>
<g>
	<g>
		<path d="M408.001,35.552C387.88,35.574,371.575,51.879,371.553,72c0,20.13,16.318,36.448,36.448,36.448
			c20.13,0,36.448-16.318,36.448-36.448S428.131,35.552,408.001,35.552z M408.001,92.448c-11.293,0-20.448-9.155-20.448-20.448
			c0.013-11.288,9.16-20.435,20.448-20.448c11.293,0,20.448,9.155,20.448,20.448S419.294,92.448,408.001,92.448z"/>
	</g>
</g>
<g>
	<g>
		<path d="M358.217,64h-14.216c-4.418,0-8,3.582-8,8s3.582,8,8,8h14.216c4.418,0,8-3.582,8-8S362.635,64,358.217,64z"/>
	</g>
</g>
<g>
	<g>
		<path d="M378.465,31.152l-10.064-10.064c-3.178-3.069-8.243-2.981-11.312,0.197c-2.994,3.1-2.994,8.015,0,11.115l10.064,10.064
			c3.178,3.07,8.242,2.982,11.312-0.196C381.459,39.167,381.459,34.252,378.465,31.152z"/>
	</g>
</g>
<g>
	<g>
		<path d="M408.001,0c-4.418,0-8,3.582-8,8v14.216c0,4.418,3.582,8,8,8s8-3.582,8-8V8C416.001,3.582,412.419,0,408.001,0z"/>
	</g>
</g>
<g>
	<g>
		<path d="M458.913,21.088c-3.124-3.123-8.188-3.123-11.312,0l-10.064,10.064c-3.178,3.07-3.266,8.134-0.196,11.312
			s8.134,3.266,11.312,0.196c0.067-0.064,0.132-0.13,0.196-0.196L458.913,32.4C462.036,29.276,462.036,24.212,458.913,21.088z"/>
	</g>
</g>
<g>
	<g>
		<path d="M472.001,64h-14.216c-4.418,0-8,3.582-8,8s3.582,8,8,8h14.216c4.418,0,8-3.582,8-8S476.419,64,472.001,64z"/>
	</g>
</g>
<g>
	<g>
		<path d="M458.913,111.6l-10.064-10.064c-3.124-3.123-8.188-3.123-11.312,0c-3.123,3.124-3.123,8.188,0,11.312l10.064,10.064
			c3.178,3.07,8.242,2.982,11.312-0.196C461.907,119.615,461.907,114.7,458.913,111.6z"/>
	</g>
</g>
<g>
	<g>
		<path d="M408.001,113.784c-4.418,0-8,3.582-8,8V136c0,4.418,3.582,8,8,8s8-3.582,8-8v-14.216
			C416.001,117.366,412.419,113.784,408.001,113.784z"/>
	</g>
</g>
<g>
	<g>
		<path d="M378.269,101.536c-3.1-2.994-8.015-2.994-11.116,0L357.089,111.6c-3.178,3.07-3.266,8.134-0.196,11.312
			c3.07,3.178,8.134,3.266,11.312,0.196c0.067-0.064,0.132-0.13,0.196-0.196l10.064-10.064
			C381.534,109.67,381.447,104.605,378.269,101.536z"/>
	</g>
</g>
<g>
</g>
<g>
</g>
<g>
</g>
<g>
</g>
<g>
</g>
<g>
</g>
<g>
</g>
<g>
</g>
<g>
</g>
<g>
</g>
<g>
</g>
<g>
</g>
<g>
</g>
<g>
</g>
<g>
</g>
</svg>
