<svg id="Layer_1" height="512" viewBox="0 0 128 128" width="512" xmlns="http://www.w3.org/2000/svg" data-name="Layer 1"><path d="m116.854 99.515a5.029 5.029 0 0 0 -6.579-2.678 61.891 61.891 0 0 1 -8.706 2.831l-7.3-53.25 4.395 5.361a1.749 1.749 0 0 0 2.229.406l8.656-4.994a1.75 1.75 0 0 0 .71-2.257l-10.659-22.797-.079-6.116a1.751 1.751 0 0 0 -1.721-1.727c-11.459-.221-20.51 3.135-26.826 9.976-9.666 10.469-10.05 25.844-9.856 31.221h-11.911a19.44 19.44 0 0 0 -7.974 1.723 7.819 7.819 0 0 0 -4.251-6.161 8.286 8.286 0 0 0 -6.947-.19c-2.956 1.256-5.3 4.128-6.592 8.088a3.4 3.4 0 0 1 -3.838 2.477c-2.235-.188-4.88-1.94-5.253-4.443a1.7 1.7 0 0 0 -1.752-1.495 1.749 1.749 0 0 0 -1.715 1.534 25.66 25.66 0 0 0 .256 7.1c1.231 6.555 4.932 8.569 7.819 9.1a10.378 10.378 0 0 0 1.89.18c4.95 0 7.958-3.882 10.428-7.068.519-.67 1-1.283 1.462-1.834a19.46 19.46 0 0 0 -2.955 8.149l-3.34 26.973a62.572 62.572 0 0 1 -8.334-2.688 5.023 5.023 0 1 0 -3.84 9.282c11.346 4.692 29.962 7.493 49.8 7.493 20.048 0 38.779-2.85 50.107-7.622a5.029 5.029 0 0 0 2.676-6.574zm-69.397-40.415v7.488a9.151 9.151 0 0 0 8.368 9.1v9.471a44.2 44.2 0 0 1 -11.488-3.806l-.237-.117a1.75 1.75 0 0 0 -2.456 1.085l-3.328 11.545h-7.632l2.573-20.78a16.091 16.091 0 0 1 14.2-13.986zm16.735-.1v7.593a5.649 5.649 0 0 1 -5.643 5.643h-1.949a5.649 5.649 0 0 1 -5.643-5.643v-7.603zm-19.755 26.266a47.84 47.84 0 0 0 12.6 3.644 1.733 1.733 0 0 0 .542.094c.035 0 .068-.008.1-.01a48.268 48.268 0 0 0 26.008-3.727l4.855 16.847a185.554 185.554 0 0 1 -24.47 1.556 185.437 185.437 0 0 1 -24.488-1.562zm47.6 16.333-1.22-4.233h6.907l.424 3.1c-1.948.414-3.988.792-6.113 1.134zm8.4-53.187-7.382-9.006a1.75 1.75 0 0 0 -3.087 1.347l7.28 53.113h-7.442l-3.327-11.547a1.749 1.749 0 0 0 -2.466-1.08 44.676 44.676 0 0 1 -24.687 4.438v-9.991a9.151 9.151 0 0 0 8.367-9.1v-8.235a7.926 7.926 0 0 0 4.577-5.341l2.8-11a23.5 23.5 0 0 1 21.683-17.698l9.656 20.651zm-26.875-21.782c5.3-5.731 12.857-8.7 22.481-8.841l.04 3.072a26.978 26.978 0 0 0 -24.408 20.282l-2.8 11a4.43 4.43 0 0 1 -4.243 3.339c-.156-4.776.154-19.362 8.93-28.852zm-45.05 37.57c-3.055 3.941-5.182 6.284-8.912 5.592-3.287-.609-4.595-3.713-5.082-6.654a9.989 9.989 0 0 0 4.794 1.779 6.892 6.892 0 0 0 7.458-4.876c.977-2.984 2.622-5.1 4.634-5.954a4.775 4.775 0 0 1 4.052.117 4.564 4.564 0 0 1 2.357 3.733c-4.265-.266-7.013 3.309-9.301 6.263zm1.739 33.17h7.056l-1.218 4.227c-2.163-.347-4.244-.732-6.218-1.158zm82.567 5.5c-10.92 4.6-29.144 7.347-48.748 7.347-19.4 0-37.518-2.7-48.461-7.228a1.522 1.522 0 0 1 1.164-2.813 69.756 69.756 0 0 0 10.587 3.27 1.748 1.748 0 0 0 .365.087h.006a167.792 167.792 0 0 0 36.339 3.637 167.842 167.842 0 0 0 36.26-3.615h.005a1.76 1.76 0 0 0 .345-.083 69.044 69.044 0 0 0 10.953-3.409 1.523 1.523 0 1 1 1.185 2.807z"/></svg>