<svg id="Layer_1" height="512" viewBox="0 0 128 128" width="512" xmlns="http://www.w3.org/2000/svg" data-name="Layer 1"><path d="m113.206 72.289h-9.457a4.742 4.742 0 0 1 0-9.483 1.75 1.75 0 0 0 0-3.5h-42.276v-30.767a1.751 1.751 0 0 0 -1.75-1.75h-13.387a1.741 1.741 0 0 0 -1.3.594l-11.474-2.3a1.75 1.75 0 0 0 -2.062 1.366l-8.965 44.609a1.745 1.745 0 0 0 .215 1.231h-7.956a1.75 1.75 0 0 0 -1.75 1.75v11.243a1.749 1.749 0 0 0 1.75 1.75h6.82v14.174a1.75 1.75 0 0 0 1.75 1.75h4.75a1.749 1.749 0 0 0 1.677-1.25l4.377-14.674h59.218v14.174a1.75 1.75 0 0 0 1.75 1.75h4.75a1.748 1.748 0 0 0 1.676-1.25l4.378-14.674h7.266a1.749 1.749 0 0 0 1.75-1.75v-11.243a1.75 1.75 0 0 0 -1.75-1.75zm-17.488-6.489h-33.18a1.75 1.75 0 0 0 0 3.5h33.162a8.193 8.193 0 0 0 1.321 2.991h-36.321a4.742 4.742 0 0 1 0-9.483h36.312a8.2 8.2 0 0 0 -1.294 2.992zm-54.979-17.394-9.692-1.948 1.417-7.052 9.692 1.947zm17.234-.161h-9.887v-7.194h9.887zm-9.887 3.5h9.887v8.033a8.217 8.217 0 0 0 -4.006 12.511h-5.881zm9.887-14.194h-9.887v-7.262h9.887zm-23.39-8.7 9.692 1.949-1.43 7.119-9.692-1.947zm-4.226 21.039 9.693 1.947-4.05 20.142-9.692-1.947zm13.469.921.76-3.781v25.26h-5.074zm-17.015 48.645h-1.7v-12.424h5.4zm71.771 0h-1.7v-12.424h5.4zm12.874-15.924h-94.912v-7.743h94.912z"/></svg>