<svg id="Layer_1" height="512" viewBox="0 0 128 128" width="512" xmlns="http://www.w3.org/2000/svg" data-name="Layer 1"><path d="m103.1 46.281a11.831 11.831 0 0 0 -2.1.2v-10.781a13.445 13.445 0 0 0 -13.43-13.43h-47.142a13.445 13.445 0 0 0 -13.428 13.43v10.778a11.849 11.849 0 1 0 -3.851 23.38v27.379a1.751 1.751 0 0 0 1.75 1.75h8.351v5a1.751 1.751 0 0 0 1.75 1.75h6.746a1.751 1.751 0 0 0 1.75-1.75v-5h41.004v5a1.75 1.75 0 0 0 1.75 1.75h6.75a1.75 1.75 0 0 0 1.75-1.75v-5h8.35a1.751 1.751 0 0 0 1.75-1.75v-27.379a11.854 11.854 0 0 0 -1.75-23.577zm-72.6-10.581a9.942 9.942 0 0 1 9.93-9.93h47.142a9.941 9.941 0 0 1 9.928 9.93v11.992a11.863 11.863 0 0 0 -6.25 10.442v2.766a9.716 9.716 0 0 0 -3.19-.542h-48.12a9.716 9.716 0 0 0 -3.19.542v-2.766a11.863 11.863 0 0 0 -6.25-10.442zm6.252 59.79v-23.69h54.5v23.69zm54.498-27.19h-54.5v-3.544a6.112 6.112 0 0 1 3.19-.9h48.12a6.112 6.112 0 0 1 3.19.9zm-66.35-1.813a8.353 8.353 0 1 1 8.353-8.353v37.353h-6.6v-27.25a1.751 1.751 0 0 0 -1.753-1.75zm15.1 35.746h-3.25v-3.246h3.25zm48.008 0v-3.246h3.242v3.246zm15.1-35.746a1.75 1.75 0 0 0 -1.75 1.75v27.25h-6.6v-37.353a8.353 8.353 0 1 1 8.354 8.353z"/><path d="m40.136 45.552a1.75 1.75 0 0 0 2.474 0l1.046-1.046 1.044 1.046a1.75 1.75 0 0 0 2.475-2.475l-1.046-1.046 1.046-1.046a1.75 1.75 0 0 0 -2.475-2.475l-1.046 1.046-1.044-1.046a1.75 1.75 0 0 0 -2.474 2.475l1.046 1.046-1.046 1.046a1.749 1.749 0 0 0 0 2.475z"/><path d="m60.479 45.552a1.752 1.752 0 0 0 2.475 0l1.046-1.046 1.046 1.046a1.75 1.75 0 0 0 2.475-2.475l-1.047-1.046 1.047-1.046a1.75 1.75 0 0 0 -2.475-2.475l-1.046 1.046-1.046-1.046a1.75 1.75 0 0 0 -2.475 2.475l1.047 1.046-1.047 1.046a1.751 1.751 0 0 0 0 2.475z"/><path d="m80.823 45.552a1.752 1.752 0 0 0 2.475 0l1.046-1.046 1.046 1.046a1.75 1.75 0 1 0 2.474-2.475l-1.046-1.046 1.046-1.046a1.75 1.75 0 1 0 -2.474-2.475l-1.046 1.046-1.044-1.046a1.75 1.75 0 1 0 -2.475 2.475l1.046 1.046-1.046 1.046a1.751 1.751 0 0 0 -.002 2.475z"/></svg>