<svg id="Layer_2" height="512" viewBox="0 0 128 128" width="512" xmlns="http://www.w3.org/2000/svg" data-name="Layer 2"><path d="m64.223 61.34h1.749a1.75 1.75 0 0 0 0-3.5h-1.461l.592-3.9a1.75 1.75 0 1 0 -3.461-.524l-.635 4.184a3.253 3.253 0 0 0 3.216 3.739z"/><path d="m63.888 70.364a9.458 9.458 0 0 0 7.312-3.055 1.75 1.75 0 1 0 -2.7-2.226 6.87 6.87 0 0 1 -9.231 0 1.75 1.75 0 1 0 -2.7 2.226 9.457 9.457 0 0 0 7.319 3.055z"/><path d="m95.683 90.786-6.742-.663-2.774-6.323a1.751 1.751 0 0 0 -2.3-.9l-5.567 2.407-.817-6.389a21.39 21.39 0 0 0 7.056-10.756c.541-1.931.9-3.921 1.327-5.879a7.512 7.512 0 0 0 1.1.091 7.831 7.831 0 0 0 2.525-15.244 5.731 5.731 0 0 0 1.759-4.13v-5.953l.464-9.407a12.493 12.493 0 1 0 -13.975-20.432 16.7 16.7 0 0 0 -27.478 0 12.491 12.491 0 1 0 -13.975 20.432l.464 9.407v5.953a5.734 5.734 0 0 0 1.7 4.072 7.834 7.834 0 0 0 2.367 15.3 7.72 7.72 0 0 0 1.317-.125c.43 1.971.79 3.973 1.335 5.916a21.39 21.39 0 0 0 7.055 10.753l-.824 6.391-5.57-2.413a1.751 1.751 0 0 0 -2.3.9l-2.774 6.326-6.742.663a21.717 21.717 0 0 0 -19.66 21.688v13.779a1.75 1.75 0 0 0 1.75 1.75h99.186a1.75 1.75 0 0 0 1.75-1.75v-13.776a21.717 21.717 0 0 0 -19.657-21.688zm-10.209.145-15.609 7.642v-5.8l8-3.465 5.797-2.508zm-45.224-52.181h47.5v4.25a2.252 2.252 0 0 1 -2.25 2.25h-43a2.252 2.252 0 0 1 -2.25-2.25zm51.05 15.789a4.352 4.352 0 0 1 -4.687 4.319 47.1 47.1 0 0 0 1.487-8.5 4.344 4.344 0 0 1 3.2 4.181zm-58.41-38.066a9.01 9.01 0 0 1 9-9 8.915 8.915 0 0 1 7.263 3.7 1.75 1.75 0 0 0 2.984-.262 13.2 13.2 0 0 1 23.726 0 1.75 1.75 0 0 0 2.984.262 8.915 8.915 0 0 1 7.263-3.7 9 9 0 0 1 3.272 17.376 1.751 1.751 0 0 0 -1.111 1.544l-.437 8.857h-10.934l2.134-8.75a1.751 1.751 0 0 0 -3.4-.831l-2.342 9.581h-7.542v-10.917a1.75 1.75 0 0 0 -3.5 0v10.917h-7.542l-2.341-9.582a1.751 1.751 0 0 0 -3.4.831l2.133 8.751h-10.934l-.437-8.857a1.751 1.751 0 0 0 -1.111-1.544 8.944 8.944 0 0 1 -5.728-8.376zm7.922 42.4a4.335 4.335 0 0 1 -.912-8.573 46.79 46.79 0 0 0 1.485 8.534 4.181 4.181 0 0 1 -.573.04zm6.667 10.232a18.722 18.722 0 0 1 -.912-2.939l-1.422-6.511v-.007l-1.345-6.157c-.083-.379-.129-.764-.186-1.147a17.917 17.917 0 0 1 -.223-2.657v-.867h6.944a3.91 3.91 0 1 0 7.671 0h10.733a3.91 3.91 0 1 0 7.671 0h8.2v.867a18.148 18.148 0 0 1 -.406 3.8l-1.367 6.24a.121.121 0 0 0 0 .019l-1.4 6.41a17.845 17.845 0 0 1 -33.956 2.948zm5.662 16.9.627-4.909a21.4 21.4 0 0 0 20.464 0l.627 4.908q.048.369.13.733l-7.569 3.282a1.75 1.75 0 0 0 -1.055 1.606v8h-4.73v-8a1.75 1.75 0 0 0 -1.055-1.606l-7.569-3.279q.083-.364.13-.732zm-8.8.79 5.793 2.509 8 3.465v5.8l-15.608-7.638zm-28.184 25.679a18.23 18.23 0 0 1 16.5-18.2l7.267-.714 14.776 7.228a11.753 11.753 0 0 0 -6.7 10.59v13.122h-20.375v-7.25a1.75 1.75 0 0 0 -3.5 0v7.25h-7.968zm95.686 12.026h-7.968v-7.25a1.75 1.75 0 0 0 -3.5 0v7.25h-48.875v-13.122a8.261 8.261 0 0 1 8.25-8.25h8.362a1.878 1.878 0 0 0 .77-.178l19.189-9.395 7.267.714a18.23 18.23 0 0 1 16.5 18.2z"/><path d="m66.5 108.167h-7.566a1.75 1.75 0 0 0 0 3.5h7.566a1.75 1.75 0 0 0 0-3.5z"/><path d="m66.5 116.705h-7.566a1.75 1.75 0 0 0 0 3.5h7.566a1.75 1.75 0 0 0 0-3.5z"/></svg>