<?xml version="1.0" standalone="no"?>
<!DOCTYPE svg PUBLIC "-//W3C//DTD SVG 20010904//EN"
 "http://www.w3.org/TR/2001/REC-SVG-20010904/DTD/svg10.dtd">
<svg version="1.0" xmlns="http://www.w3.org/2000/svg"
 width="321.000000pt" height="285.000000pt" viewBox="0 0 321.000000 285.000000"
 preserveAspectRatio="xMidYMid meet">
<metadata>
Created by potrace 1.15, written by Peter Selinger 2001-2017
</metadata>
<g transform="translate(0.000000,285.000000) scale(0.100000,-0.100000)"
fill="#000000" stroke="none">
<path d="M2470 2837 c-196 -103 -293 -258 -293 -467 0 -102 12 -153 61 -249
32 -64 132 -168 187 -196 22 -11 43 -24 47 -30 4 -5 8 -265 8 -576 l0 -567
-37 -28 c-106 -79 -163 -194 -163 -328 0 -147 60 -260 183 -345 60 -41 93 -48
117 -26 18 17 20 32 20 186 0 194 -2 189 94 189 85 0 86 -2 86 -201 l0 -169
26 -12 c22 -11 33 -8 80 16 58 30 138 112 165 168 9 18 22 46 30 62 9 19 14
64 14 130 0 96 -2 105 -37 178 -28 56 -53 90 -98 131 l-60 54 0 569 0 569 48
27 c173 97 286 330 252 520 -7 40 -16 79 -20 88 -48 105 -73 143 -125 196
-101 102 -184 143 -218 109 -15 -14 -17 -44 -17 -224 0 -196 -1 -210 -21 -235
-19 -25 -25 -26 -109 -26 -84 0 -90 1 -109 26 -20 25 -21 39 -21 235 0 175 -2
210 -16 223 -19 19 -41 20 -74 3z m14 -502 c29 -44 67 -74 103 -81 17 -3 77
-4 132 -2 99 3 100 3 136 38 21 19 42 46 48 60 7 14 14 100 17 193 l5 167 31
-21 c36 -27 80 -85 114 -154 23 -45 25 -62 25 -170 0 -114 -2 -123 -30 -175
-48 -90 -146 -184 -215 -205 -14 -4 -30 -15 -37 -24 -9 -12 -12 -164 -13 -638
l0 -621 31 -24 c70 -54 109 -96 136 -148 24 -48 28 -66 28 -140 0 -77 -3 -90
-32 -140 -18 -31 -43 -66 -57 -79 l-26 -24 0 105 c0 136 -5 159 -45 201 -28
29 -43 37 -90 42 -75 10 -154 0 -184 -23 -51 -38 -59 -67 -60 -201 l-1 -125
-34 33 c-57 55 -86 128 -86 216 0 41 4 83 9 93 34 69 47 91 75 120 17 18 48
43 69 55 20 11 37 28 37 36 5 213 1 1252 -5 1260 -4 7 -24 20 -44 28 -36 15
-99 61 -136 98 -128 131 -147 351 -46 510 15 22 41 53 60 70 19 16 39 35 45
41 8 8 12 -39 16 -165 4 -152 8 -181 24 -206z"/>
<path d="M1235 2484 c-38 -8 -79 -18 -90 -23 -11 -5 -46 -21 -78 -35 -32 -15
-64 -31 -70 -36 -7 -5 -37 -30 -67 -54 -31 -24 -69 -61 -85 -82 -16 -22 -35
-45 -42 -52 -38 -39 -94 -184 -115 -295 -11 -61 -16 -70 -47 -90 -78 -47 -141
-125 -141 -171 0 -59 76 -106 170 -106 l47 0 32 -97 c18 -54 41 -113 52 -131
10 -18 19 -37 19 -42 0 -8 95 -173 112 -195 4 -5 19 -24 33 -41 22 -28 25 -41
25 -112 l0 -80 -72 -21 c-40 -12 -111 -33 -158 -47 -93 -28 -160 -49 -290 -87
-230 -69 -268 -82 -308 -104 -110 -62 -142 -126 -153 -308 -14 -227 -13 -244
16 -257 19 -9 29 -8 49 5 23 16 24 21 30 174 7 174 16 214 55 256 30 34 101
71 151 82 19 4 76 20 125 36 50 16 137 43 195 60 58 17 116 34 130 39 76 25
72 27 119 -73 24 -51 62 -132 86 -182 24 -49 54 -116 69 -147 34 -77 54 -86
108 -52 24 15 45 30 48 33 3 4 28 24 57 46 28 22 66 51 84 65 18 14 35 24 38
23 9 -3 125 -92 193 -148 63 -52 102 -48 130 13 40 89 104 225 149 319 27 56
49 106 49 112 0 14 11 14 62 -3 24 -8 70 -22 103 -31 33 -10 79 -24 103 -31
64 -21 91 -18 104 11 9 19 8 29 -6 50 -9 14 -23 25 -30 25 -8 0 -56 13 -106
30 -50 17 -98 30 -106 30 -8 0 -22 4 -32 9 -9 5 -44 17 -77 26 -33 9 -76 22
-95 27 -19 6 -41 12 -47 14 -9 2 -13 28 -13 84 0 68 4 86 23 113 12 18 25 34
28 37 21 17 114 189 150 278 5 12 13 32 19 45 71 169 105 459 68 583 -68 220
-199 375 -395 465 -64 30 -204 58 -278 57 -33 0 -91 -7 -130 -14z m245 -99
c41 -9 99 -27 128 -40 29 -14 55 -25 57 -25 10 0 53 -38 120 -105 50 -50 82
-93 107 -146 32 -65 58 -152 58 -194 0 -13 -80 -15 -585 -15 -363 0 -585 4
-585 10 0 19 28 116 49 169 66 166 228 301 411 342 96 22 147 23 240 4z m238
-631 c-3 -3 -46 -12 -94 -20 -49 -9 -111 -20 -139 -25 -174 -34 -426 -59 -663
-66 -109 -3 -197 -2 -203 4 -11 11 25 53 76 86 l40 26 494 0 c272 1 492 -2
489 -5z m220 -106 c-20 -132 -104 -344 -193 -482 -36 -56 -46 -69 -108 -142
-42 -49 -139 -110 -205 -129 -49 -15 -64 -15 -107 -5 -80 20 -143 57 -209 123
-60 61 -69 72 -121 150 -62 93 -143 266 -159 343 l-7 31 78 7 c195 16 394 36
453 45 154 23 268 41 305 50 22 5 72 16 112 25 40 8 87 22 105 30 62 27 66 24
56 -46z m-806 -781 c67 -42 103 -58 168 -73 64 -14 75 -14 146 2 55 12 94 28
140 59 l64 43 0 -34 c0 -34 -28 -72 -142 -189 -21 -22 -61 -64 -87 -93 -51
-54 -66 -58 -92 -21 -7 11 -36 44 -64 73 -186 195 -175 180 -175 227 0 24 4
39 8 34 4 -6 19 -18 34 -28z m15 -254 c72 -76 135 -142 140 -146 4 -5 1 -14
-8 -20 -41 -30 -84 -64 -115 -91 -35 -29 -64 -29 -64 -1 0 8 -11 36 -25 63
-57 110 -135 281 -135 296 0 10 9 16 24 16 14 0 28 5 31 10 3 6 10 10 14 10 4
0 66 -62 138 -137z m608 123 c43 -15 46 -27 20 -76 -8 -14 -29 -59 -48 -100
-84 -182 -108 -230 -117 -230 -4 0 -28 16 -52 36 -23 19 -51 41 -60 49 -9 7
-26 19 -38 25 -24 13 -31 4 159 207 53 56 96 102 96 102 0 1 18 -6 40 -13z"/>
</g>
</svg>
