<svg id="Layer_1" height="512" viewBox="0 0 128 128" width="512" xmlns="http://www.w3.org/2000/svg" data-name="Layer 1"><path d="m53.336 59.087a1.752 1.752 0 0 0 1.673.119l19.437-8.886a1.75 1.75 0 0 0 0-3.184l-19.437-8.885a1.75 1.75 0 0 0 -2.478 1.592v17.771a1.751 1.751 0 0 0 .805 1.473zm2.7-16.52 13.478 6.161-13.482 6.162z"/><path d="m10.176 38.285h2.744a1.75 1.75 0 1 0 0-3.5h-2.744a1.75 1.75 0 0 0 0 3.5z"/><path d="m11.548 50.161a4.415 4.415 0 1 0 -4.415-4.414 4.42 4.42 0 0 0 4.415 4.414zm0-5.329a.915.915 0 1 1 -.915.915.916.916 0 0 1 .915-.915z"/><path d="m11.548 63.027a4.415 4.415 0 1 0 -4.415-4.414 4.42 4.42 0 0 0 4.415 4.414zm0-5.329a.915.915 0 1 1 -.915.915.916.916 0 0 1 .915-.913z"/><path d="m119.724 29.775h-6.544a6 6 0 0 0 -5.993 5.993v36.257a1.75 1.75 0 0 0 1.75 1.75h5.763v2.125h-1.52a6 6 0 0 0 -5.785 4.452h-6.333a3.867 3.867 0 0 0 -.062-1.284l-.361-1.529h1.575a1.75 1.75 0 0 0 1.75-1.75v-51.682a1.75 1.75 0 0 0 -1.75-1.75h-76.428a1.75 1.75 0 0 0 -1.75 1.75v51.682a1.75 1.75 0 0 0 1.75 1.75h1.575l-.361 1.529a3.867 3.867 0 0 0 -.062 1.282h-6.338a6 6 0 0 0 -5.78-4.45h-1.52v-2.125h5.765a1.75 1.75 0 0 0 1.75-1.75v-36.256a6 6 0 0 0 -5.993-5.993h-6.546a6 6 0 0 0 -5.993 5.993v36.256a1.75 1.75 0 0 0 1.75 1.75h5.767v2.125h-1.524a6 6 0 0 0 -5.993 5.993v14.335a1.75 1.75 0 0 0 1.75 1.75h4.878l-.547 2.322a4.347 4.347 0 0 0 8.241 2.675l2.086-4.994h90.618l2.086 4.993a4.347 4.347 0 0 0 8.242-2.674l-.548-2.319h4.878a1.75 1.75 0 0 0 1.75-1.75v-14.339a6 6 0 0 0 -5.993-5.993h-1.524v-2.124h5.765a1.75 1.75 0 0 0 1.75-1.75v-36.256a6 6 0 0 0 -5.991-5.994zm-111.448 3.5h6.544a2.5 2.5 0 0 1 2.493 2.493v29.41h-11.53v-29.409a2.5 2.5 0 0 1 2.493-2.494zm-2.493 35.4h11.53v1.6h-11.53zm116.434 18.739h-116.434v-3.563h116.434zm-24.624-7.541a.376.376 0 0 1 -.074.33c-.106.136-.542.2-.663-.092l-1.074-2.572h1.26zm-62.748-5.834h-7.309v-2.969h72.928v2.969zm65.619-48.182v41.713h-72.928v-41.713zm-68.247 51.682-1.074 2.572c-.12.289-.556.228-.663.092a.376.376 0 0 1 -.074-.33l.551-2.334zm3.793 0h55.98l1.174 2.812h-58.328zm-27.734 1.861h6.544a2.491 2.491 0 0 1 1.958.952h-10.46a2.491 2.491 0 0 1 1.958-.952zm5.1 22.225a.843.843 0 0 1 -.781.52.846.846 0 0 1 -.824-1.041l.737-3.124h2.392zm102.854-.525a.846.846 0 0 1 -.824 1.041.844.844 0 0 1 -.781-.521l-1.525-3.642h2.391zm5.987-6.624h-116.434v-3.562h116.434zm-.535-14.127h-10.46a2.491 2.491 0 0 1 1.958-.952h6.543a2.491 2.491 0 0 1 1.959.954zm-8.5-47.075h6.543a2.5 2.5 0 0 1 2.493 2.493v29.41h-11.53v-29.408a2.5 2.5 0 0 1 2.492-2.494zm9.037 37h-11.53v-1.6h11.53z"/><path d="m115.08 38.285h2.744a1.75 1.75 0 1 0 0-3.5h-2.744a1.75 1.75 0 1 0 0 3.5z"/><path d="m116.452 50.161a4.415 4.415 0 1 0 -4.415-4.414 4.42 4.42 0 0 0 4.415 4.414zm0-5.329a.915.915 0 1 1 -.915.915.916.916 0 0 1 .915-.915z"/><path d="m116.452 63.027a4.415 4.415 0 1 0 -4.415-4.414 4.42 4.42 0 0 0 4.415 4.414zm0-5.329a.915.915 0 1 1 -.915.915.916.916 0 0 1 .915-.913z"/></svg>