<svg id="Layer_1" height="512" viewBox="0 0 128 128" width="512" xmlns="http://www.w3.org/2000/svg" data-name="Layer 1"><path d="m58.956 61.89-13.456 13.454a1.75 1.75 0 1 0 2.475 2.475l13.455-13.454a1.75 1.75 0 0 0 -2.474-2.475z"/><path d="m58.956 72.087-5.092 5.092a1.75 1.75 0 1 0 2.475 2.474l5.091-5.091a1.75 1.75 0 0 0 -2.474-2.475z"/><path d="m107.674 37.948h-34.474a9.394 9.394 0 0 0 -5.285-6.754l18.585-14.773a1.749 1.749 0 1 0 -2.177-2.739l-20.354 16.181-13.837-10.379a1.75 1.75 0 1 0 -2.1 2.8l11.945 8.96a9.392 9.392 0 0 0 -5.181 6.7h-34.47a7.29 7.29 0 0 0 -7.282 7.281v54.623a7.29 7.29 0 0 0 7.282 7.281h4.8l-3.086 4.885a1.75 1.75 0 0 0 1.479 2.685h6.45a1.749 1.749 0 0 0 1.246-.522l6.945-7.048h51.678l6.945 7.048a1.749 1.749 0 0 0 1.246.522h6.45a1.75 1.75 0 0 0 1.479-2.685l-3.086-4.885h4.8a7.29 7.29 0 0 0 7.282-7.281v-54.619a7.29 7.29 0 0 0 -7.28-7.281zm-43.674-4.124a5.885 5.885 0 0 1 5.608 4.124h-11.216a5.885 5.885 0 0 1 5.608-4.124zm-34.762 77.376h-2.538l2.571-4.07h3.98zm72.065 0h-2.541l-4.01-4.07h3.98zm10.153-11.351a3.785 3.785 0 0 1 -3.782 3.781h-87.348a3.785 3.785 0 0 1 -3.782-3.781v-54.62a3.785 3.785 0 0 1 3.782-3.781h87.348a3.785 3.785 0 0 1 3.782 3.781z"/><path d="m84.921 45.149h-58.252c-2.138 0-3.2 2.365-4.047 9.039a152.855 152.855 0 0 0 -.972 18.351 152.867 152.867 0 0 0 .972 18.351c.85 6.673 1.909 9.038 4.047 9.038h58.252c2.138 0 3.2-2.365 4.048-9.038a153.121 153.121 0 0 0 .971-18.351 153.109 153.109 0 0 0 -.971-18.351c-.851-6.674-1.91-9.039-4.048-9.039zm-.656 51.279h-56.94c-.968-2.121-2.175-10.956-2.175-23.889s1.207-21.768 2.175-23.89h56.94c.968 2.122 2.175 10.956 2.175 23.89s-1.207 21.767-2.175 23.889z"/><path d="m104.6 47.885h-9.346a1.751 1.751 0 0 0 -1.75 1.75v6.187a1.751 1.751 0 0 0 1.75 1.75h9.346a1.751 1.751 0 0 0 1.75-1.75v-6.187a1.751 1.751 0 0 0 -1.75-1.75zm-1.75 6.187h-5.85v-2.687h5.846z"/></svg>