<svg id="Layer_2" height="512" viewBox="0 0 128 128" width="512" xmlns="http://www.w3.org/2000/svg" data-name="Layer 2"><path d="m103.311 0h-78.622a6.758 6.758 0 0 0 -6.75 6.75v95.75a6.757 6.757 0 0 0 4.311 6.287v5.463a3.747 3.747 0 0 0 3.625 3.737v8.263a1.75 1.75 0 0 0 1.75 1.75h7.5a1.75 1.75 0 0 0 1.75-1.75v-8.263a3.747 3.747 0 0 0 3.625-3.737v-5h2.759l9.5 9.5a1.75 1.75 0 0 0 1.237.513h20.012a1.75 1.75 0 0 0 1.237-.513l9.495-9.5h2.76v5a3.747 3.747 0 0 0 3.625 3.737v8.263a1.749 1.749 0 0 0 1.75 1.75h7.5a1.749 1.749 0 0 0 1.75-1.75v-8.263a3.747 3.747 0 0 0 3.625-3.737v-5.463a6.757 6.757 0 0 0 4.311-6.287v-95.75a6.758 6.758 0 0 0 -6.75-6.75zm-13.19 3.5v45.41h-53.246v-45.41zm-56.746 121h-4v-6.5h4zm3.625-10.25a.25.25 0 0 1 -.25.25h-10.75a.25.25 0 0 1 -.25-.25v-5h11.25zm61.625 10.25h-4v-6.5h4zm3.625-10.25a.25.25 0 0 1 -.25.25h-10.75a.25.25 0 0 1 -.25-.25v-5h11.25zm4.311-11.75a3.254 3.254 0 0 1 -3.25 3.25h-19.3a1.752 1.752 0 0 0 -1.238.513l-9.5 9.495h-18.556l-9.5-9.495a1.75 1.75 0 0 0 -1.237-.513h-19.3a3.254 3.254 0 0 1 -3.25-3.25v-95.75a3.254 3.254 0 0 1 3.25-3.25h8.686v47.16a1.75 1.75 0 0 0 1.75 1.75h56.755a1.749 1.749 0 0 0 1.75-1.75v-47.16h9.69a3.254 3.254 0 0 1 3.25 3.25z"/><path d="m91.871 57.253h-55.742a1.75 1.75 0 0 0 -1.75 1.747v8.874a1.751 1.751 0 0 0 .589 1.31l10.008 8.876a1.748 1.748 0 0 0 1.161.44h35.726a1.748 1.748 0 0 0 1.161-.44l10.008-8.873a1.754 1.754 0 0 0 .589-1.31v-8.877a1.749 1.749 0 0 0 -1.75-1.747zm-1.75 9.837-8.921 7.91h-34.4l-8.922-7.91v-6.337h52.243z"/><path d="m81.375 85.117h-34.75a1.75 1.75 0 0 0 0 3.5h34.75a1.75 1.75 0 0 0 0-3.5z"/><path d="m74 95.235h-20a1.75 1.75 0 0 0 0 3.5h20a1.75 1.75 0 0 0 0-3.5z"/><path d="m63.5 38.037a8.441 8.441 0 0 0 8.432-8.432c0-4.026-5.82-12.759-6.986-14.469a1.749 1.749 0 0 0 -2.891 0c-1.167 1.71-6.987 10.443-6.987 14.469a8.441 8.441 0 0 0 8.432 8.432zm0-18.721c2.381 3.774 4.932 8.493 4.932 10.289a4.932 4.932 0 0 1 -9.864 0c-.002-1.794 2.55-6.514 4.932-10.289z"/></svg>