<svg id="Layer_1" height="512" viewBox="0 0 128 128" width="512" xmlns="http://www.w3.org/2000/svg" data-name="Layer 1"><path d="m105.167 13.044h-82.334a1.751 1.751 0 0 0 -1.75 1.75v90.539a1.75 1.75 0 0 0 1.75 1.75h1.253v6.123a1.751 1.751 0 0 0 1.75 1.75h7.872a1.75 1.75 0 0 0 1.75-1.75v-6.123h57.084v6.123a1.75 1.75 0 0 0 1.75 1.75h7.872a1.75 1.75 0 0 0 1.75-1.75v-6.123h1.253a1.749 1.749 0 0 0 1.75-1.75v-90.539a1.75 1.75 0 0 0 -1.75-1.75zm-39.417 90.539v-12.541h37.667v12.541zm-41.167 0v-28.583h37.667v28.583zm71.9-69.416h-26.989a5.9 5.9 0 0 0 -1.38-2.167 5.806 5.806 0 0 0 -9.614 2.167h-26.978v-10.646h64.956zm-31.218 0h-2.565a2.328 2.328 0 0 1 1.3-.4 2.287 2.287 0 0 1 1.26.4zm-33.738 3.5h27.589a1.687 1.687 0 0 0 1.582 0h5.056a2.343 2.343 0 0 1 -.431.38 7.117 7.117 0 0 0 -2.965 4.738l-23.336 10.3a1.751 1.751 0 0 0 .707 3.352h48.542a1.751 1.751 0 0 0 .707-3.352l-23.061-10.179a3.577 3.577 0 0 1 1.389-1.974 5.841 5.841 0 0 0 2.32-3.265h26.852v33.833h-64.956zm32.473 8.219 15.973 7.051h-31.946zm1.75 41.656v-12.542h37.667v12.542zm37.667-71v54.958h-3.439v-49.729a1.751 1.751 0 0 0 -1.75-1.75h-68.456a1.751 1.751 0 0 0 -1.75 1.75v49.729h-3.439v-54.956zm-71.459 94.914h-4.372v-4.373h4.372zm68.456 0h-4.372v-4.373h4.372z"/><path d="m86.375 79.521h-3.583a1.75 1.75 0 0 0 0 3.5h3.583a1.75 1.75 0 0 0 0-3.5z"/><path d="m45.208 87.542h-3.583a1.75 1.75 0 0 0 0 3.5h3.583a1.75 1.75 0 0 0 0-3.5z"/><path d="m86.375 95.563h-3.583a1.75 1.75 0 0 0 0 3.5h3.583a1.75 1.75 0 0 0 0-3.5z"/></svg>